<?xml version="1.0" standalone="no"?>
<!DOCTYPE svg PUBLIC "-//W3C//DTD SVG 20010904//EN"
 "http://www.w3.org/TR/2001/REC-SVG-20010904/DTD/svg10.dtd">
<svg version="1.0" xmlns="http://www.w3.org/2000/svg"
 width="1456.000000pt" height="1456.000000pt" viewBox="0 0 1456.000000 1456.000000"
 preserveAspectRatio="xMidYMid meet">
<metadata>
Created by potrace 1.11, written by Peter Selinger 2001-2013
</metadata>
<g transform="translate(0.000000,1456.000000) scale(0.100000,-0.100000)"
fill="#000000" stroke="none">
<path d="M1297 11634 c-1 -1 -38 -4 -82 -8 -114 -9 -168 -15 -185 -22 -8 -4
-26 -8 -40 -10 -40 -5 -178 -44 -225 -63 -77 -33 -235 -114 -235 -122 0 -5 -4
-8 -8 -6 -10 3 -82 -45 -82 -55 0 -5 -4 -8 -10 -8 -6 0 -19 -8 -29 -17 -78
-72 -127 -124 -154 -160 -17 -24 -34 -43 -39 -43 -4 0 -8 -4 -8 -9 0 -5 -17
-38 -38 -72 -67 -112 -115 -240 -139 -370 -9 -55 -10 -390 -1 -444 4 -22 10
-58 13 -80 9 -58 28 -165 41 -235 3 -14 7 -43 10 -65 3 -22 7 -47 9 -55 3 -8
7 -33 10 -55 3 -22 9 -53 12 -70 9 -39 9 -43 23 -128 6 -40 13 -82 16 -94 2
-13 6 -35 9 -50 13 -71 27 -152 36 -196 5 -27 7 -53 3 -58 -3 -5 0 -9 6 -9 6
0 9 -4 6 -8 -3 -4 -1 -26 4 -48 5 -21 11 -57 14 -78 4 -21 8 -48 11 -60 2 -12
7 -37 10 -56 2 -19 7 -46 9 -60 3 -14 7 -41 10 -60 3 -19 8 -46 11 -60 3 -14
10 -52 16 -85 12 -73 15 -85 28 -154 6 -30 9 -56 6 -59 -3 -3 -1 -10 4 -16 4
-6 11 -31 14 -56 7 -45 12 -77 23 -127 3 -16 8 -41 10 -58 8 -48 12 -68 18
-95 3 -14 9 -45 12 -70 3 -25 8 -54 11 -65 3 -11 7 -31 9 -45 5 -36 11 -71 19
-105 3 -16 8 -41 10 -55 1 -14 6 -41 10 -60 4 -19 9 -44 10 -55 2 -11 6 -36
10 -55 4 -19 10 -55 15 -80 4 -25 10 -54 13 -65 3 -11 8 -45 13 -75 8 -58 10
-68 14 -72 1 -2 3 -12 4 -23 9 -59 18 -115 27 -155 6 -25 12 -57 14 -72 2 -15
6 -35 9 -45 3 -10 7 -34 10 -53 9 -55 16 -94 22 -113 3 -10 7 -30 9 -45 5 -39
13 -82 40 -217 13 -66 27 -136 30 -155 8 -46 10 -57 20 -105 12 -63 12 -64 35
-170 11 -55 21 -107 22 -115 0 -8 7 -44 15 -80 8 -36 16 -76 18 -90 1 -14 4
-25 5 -25 1 0 3 -11 5 -25 2 -14 6 -36 9 -50 7 -31 25 -116 31 -150 3 -14 7
-36 10 -50 14 -64 17 -79 26 -134 5 -33 12 -62 14 -66 2 -4 7 -22 10 -41 3
-19 10 -52 15 -73 5 -22 7 -44 4 -48 -3 -4 0 -8 6 -8 6 0 9 -4 6 -8 -2 -4 4
-46 14 -93 10 -46 21 -99 25 -116 3 -18 12 -61 19 -95 8 -35 17 -76 20 -93 3
-16 10 -48 15 -70 6 -22 10 -41 11 -42 0 -2 0 -4 1 -5 2 -7 7 -36 13 -68 8
-49 14 -79 20 -98 3 -9 7 -34 10 -54 2 -21 7 -41 10 -47 3 -5 8 -26 12 -47 3
-22 12 -66 21 -99 8 -33 16 -69 18 -80 1 -11 5 -27 9 -35 3 -8 7 -24 9 -35 15
-81 89 -294 145 -415 28 -61 120 -206 170 -267 140 -172 299 -282 537 -369 25
-9 27 -9 100 -30 90 -24 97 -26 200 -41 112 -17 767 -8 873 12 9 1 44 6 77 9
33 4 67 9 75 11 8 2 31 6 50 9 19 3 91 15 160 26 69 12 136 23 150 25 43 7 84
15 110 20 14 3 39 7 55 10 86 11 121 18 131 26 6 5 13 6 17 3 3 -3 45 2 94 11
48 9 102 18 118 20 17 2 30 4 30 5 0 2 32 8 75 14 19 3 46 7 60 10 14 3 41 7
60 10 89 13 145 23 145 26 0 1 14 3 30 5 17 2 46 7 65 11 19 4 49 8 66 9 17 2
40 6 51 9 12 4 40 9 64 11 24 3 55 7 69 10 14 3 41 8 60 11 19 2 46 6 60 9 14
3 42 8 64 11 21 3 48 8 60 11 11 2 32 6 46 7 25 3 99 15 135 22 11 2 36 6 55
9 19 3 44 6 55 9 39 7 91 16 130 21 22 4 51 8 65 11 14 2 41 7 60 10 19 3 46
7 60 10 14 2 41 7 60 9 19 3 45 8 57 10 12 3 39 7 60 10 21 3 49 7 63 10 26 6
60 11 120 19 19 3 49 7 65 10 17 4 44 8 60 11 17 2 48 7 70 11 22 3 54 8 70 9
17 2 41 6 55 9 13 3 42 8 65 12 22 3 62 10 88 15 26 5 51 8 55 8 4 -1 9 0 12
1 8 3 41 8 85 15 22 3 49 7 60 9 26 5 89 15 140 22 22 3 47 7 55 9 8 2 35 7
60 10 25 3 52 8 60 10 8 2 35 7 60 10 25 3 85 13 134 21 49 8 108 17 130 19
23 3 64 9 91 14 28 6 66 13 85 15 19 3 44 7 55 10 11 2 40 7 65 10 25 3 54 8
65 10 11 2 56 9 100 16 44 7 89 14 100 16 30 6 86 15 120 19 17 2 44 6 60 9
31 5 275 45 310 50 53 8 122 19 140 22 11 3 36 7 55 10 19 3 46 7 60 10 14 2
45 7 70 10 25 3 54 8 65 11 11 2 34 6 50 8 75 12 91 14 110 18 29 7 126 21
150 22 11 1 29 4 40 7 11 4 40 9 65 12 25 4 57 8 73 11 81 14 147 25 187 30
25 3 52 8 60 10 8 3 31 7 50 9 43 6 105 16 145 23 17 3 41 7 55 8 14 2 36 6
50 10 14 3 41 8 60 10 19 2 46 7 60 10 14 3 42 7 64 10 37 5 67 10 116 20 13
2 42 7 65 10 73 11 148 23 210 35 28 5 68 12 90 15 23 3 50 7 62 9 11 3 38 7
59 10 22 4 62 10 89 16 28 5 68 12 90 15 39 5 115 18 185 31 19 3 44 8 55 9
80 13 102 17 115 20 8 3 33 7 55 10 22 3 51 8 65 11 14 2 39 7 55 10 17 2 55
9 85 15 30 5 72 12 93 15 49 8 72 12 72 14 0 1 11 3 25 4 14 1 45 6 70 11 25
5 53 10 63 11 9 1 18 2 20 4 2 2 24 6 82 14 46 6 89 14 125 21 14 3 41 8 60
11 19 3 42 7 50 9 8 2 33 7 55 10 23 3 51 7 63 10 12 2 84 15 160 29 155 29
166 31 242 45 100 19 125 23 145 26 11 2 22 4 25 5 6 3 10 4 75 14 28 5 59 10
70 13 68 13 123 24 145 28 43 7 84 15 105 19 11 2 40 7 65 11 25 4 54 9 65 12
40 8 171 33 199 38 15 2 36 7 46 10 10 3 27 7 37 9 68 14 272 108 311 144 7 6
23 17 35 24 37 19 207 184 207 200 0 3 6 13 13 20 86 89 206 377 243 578 2 14
10 54 16 90 21 108 15 716 -7 783 -2 6 -6 35 -9 62 -3 28 -8 61 -10 75 -3 14
-8 48 -11 75 -3 28 -8 64 -11 80 -3 17 -7 46 -9 65 -3 19 -7 46 -9 60 -2 14
-7 50 -10 80 -8 65 -17 131 -20 145 -2 6 -6 33 -10 60 -4 28 -10 61 -12 75 -3
14 -7 43 -10 65 -3 22 -14 92 -24 155 -11 63 -20 132 -22 153 -1 20 -5 37 -8
37 -3 0 -6 15 -7 33 -1 18 -9 74 -18 125 -9 51 -13 97 -10 102 3 5 1 11 -4 15
-5 3 -9 13 -9 23 0 9 -2 31 -5 47 -4 17 -9 48 -12 70 -4 22 -15 92 -25 155
-10 63 -21 133 -25 155 -3 22 -8 51 -10 65 -2 14 -11 72 -19 130 -9 58 -19
119 -22 135 -3 17 -7 44 -9 60 -8 69 -16 122 -21 145 -3 14 -7 39 -9 55 -1 17
-7 55 -13 85 -6 30 -14 66 -16 80 -10 54 -46 164 -78 238 -39 90 -127 242
-139 242 -5 0 -9 5 -9 11 0 14 -22 39 -120 137 -80 80 -83 83 -145 128 -22 16
-41 32 -43 37 -2 4 -8 7 -12 7 -5 0 -28 13 -52 28 -24 16 -58 35 -75 43 -18 8
-33 17 -33 21 0 5 -9 8 -20 8 -11 0 -20 5 -20 10 0 6 -7 10 -16 10 -9 0 -33 9
-53 19 -73 39 -411 141 -411 125 0 -3 -8 0 -18 5 -9 5 -41 12 -71 15 -29 3
-56 8 -59 10 -4 2 -34 6 -67 10 -33 3 -73 9 -89 12 -15 2 -47 6 -71 8 -24 2
-47 6 -51 8 -5 3 -27 6 -50 7 -38 2 -79 8 -79 11 0 0 -18 3 -40 5 -39 4 -65 7
-170 21 -27 4 -61 8 -75 10 -40 4 -112 14 -150 20 -19 3 -55 8 -80 10 -41 4
-70 8 -140 19 -14 2 -52 7 -85 11 -76 9 -100 12 -100 14 0 1 -20 3 -45 5 -25
2 -56 6 -70 8 -14 3 -50 8 -80 12 -30 3 -77 9 -105 12 -27 3 -61 7 -75 8 -14
1 -25 3 -25 4 0 2 -16 4 -35 6 -19 2 -57 6 -85 9 -27 4 -70 9 -95 12 -25 3
-56 7 -70 10 -14 2 -50 6 -80 9 -30 4 -66 8 -80 10 -74 11 -121 17 -151 20
-19 1 -54 5 -79 9 -25 4 -65 9 -90 12 -25 2 -63 7 -85 10 -22 3 -57 6 -77 7
-21 1 -38 4 -38 7 0 3 -12 5 -27 6 -29 1 -146 14 -174 19 -9 2 -40 6 -70 10
-30 3 -85 10 -124 14 -38 5 -77 9 -85 9 -8 0 -35 3 -60 7 -46 6 -86 12 -142
19 -18 3 -58 8 -88 11 -30 3 -77 8 -105 12 -27 3 -61 7 -75 8 -14 2 -25 4 -25
5 0 1 -20 3 -45 5 -25 2 -85 9 -135 16 -49 6 -107 13 -130 16 -56 6 -92 10
-150 17 -44 6 -215 26 -345 41 -25 3 -63 8 -85 10 -53 7 -131 16 -175 20 -19
2 -53 6 -75 9 -41 6 -139 17 -185 22 -14 1 -25 3 -25 4 0 1 -18 3 -40 5 -47 4
-121 12 -185 20 -25 3 -61 7 -80 9 -19 2 -54 7 -77 10 -23 4 -66 9 -95 11 -51
5 -73 7 -168 19 -25 4 -70 8 -100 11 -30 3 -71 7 -90 10 -48 7 -116 15 -170
20 -25 3 -63 7 -85 10 -22 2 -65 7 -95 10 -119 13 -146 16 -180 21 -37 5 -124
14 -175 19 -16 1 -55 5 -85 9 -84 11 -165 20 -265 31 -33 4 -76 9 -95 12 -19
2 -50 5 -67 5 -18 1 -33 4 -33 7 0 3 -15 6 -34 5 -18 -1 -60 3 -92 7 -33 4
-88 11 -124 15 -65 7 -73 8 -165 19 -27 3 -72 8 -100 10 -27 1 -61 6 -75 9
-14 3 -52 8 -85 11 -33 3 -73 7 -90 9 -16 2 -59 7 -95 10 -36 4 -77 8 -90 11
-13 3 -51 7 -84 10 -34 3 -77 7 -96 9 -19 3 -60 8 -90 11 -61 6 -127 14 -180
21 -19 2 -55 6 -80 9 -25 2 -63 6 -85 9 -22 2 -71 7 -110 11 -38 3 -81 8 -95
11 -46 8 -144 18 -187 18 -24 1 -43 4 -43 7 0 5 -35 8 -127 12 -7 0 -13 3 -13
6 0 3 -21 6 -48 7 -43 1 -110 8 -202 20 -19 3 -57 7 -85 9 -27 2 -63 6 -80 9
-16 2 -59 8 -95 12 -91 9 -107 11 -179 19 -35 4 -82 9 -105 11 -77 9 -101 12
-101 13 0 1 -31 4 -70 6 -38 3 -81 7 -95 10 -14 3 -50 8 -80 10 -30 3 -68 7
-85 9 -16 3 -61 8 -100 11 -38 4 -79 9 -90 12 -11 2 -42 6 -70 8 -55 4 -119
11 -186 20 -24 3 -66 7 -94 10 -27 2 -68 7 -90 10 -22 3 -60 8 -85 10 -25 2
-75 7 -111 10 -63 6 -238 13 -242 9z m5870 -2308 c7 -7 15 -109 28 -378 1 -31
6 -62 10 -69 6 -8 4 -10 -5 -4 -9 6 -11 4 -5 -4 4 -7 9 -45 11 -84 5 -112 19
-354 29 -506 3 -40 8 -77 11 -82 3 -5 0 -9 -6 -9 -6 0 -8 -4 -5 -10 7 -11 11
-59 20 -225 3 -60 7 -139 10 -175 2 -36 7 -114 10 -174 5 -107 14 -154 16 -85
0 19 2 41 4 50 3 15 13 153 21 269 2 30 5 87 8 125 3 39 8 104 11 145 3 41 8
98 10 125 3 28 8 84 11 125 3 41 8 113 11 160 3 47 6 97 7 113 0 15 3 27 6 27
3 0 5 28 6 63 0 58 9 189 19 282 3 37 12 154 20 268 1 27 5 50 8 53 4 4 151 6
399 5 85 -1 97 -3 96 -18 -1 -36 11 -153 17 -163 3 -6 1 -10 -5 -10 -6 0 -8
-5 -4 -11 4 -7 8 -35 10 -63 2 -28 6 -80 9 -116 2 -36 7 -99 9 -140 3 -41 8
-97 11 -125 5 -55 16 -198 20 -285 2 -30 4 -55 5 -55 1 0 3 -29 5 -65 2 -36 6
-101 10 -145 4 -44 8 -102 10 -130 10 -131 16 -214 20 -255 8 -84 17 -245 16
-269 -1 -14 2 -21 5 -18 7 7 9 29 19 207 3 52 7 129 10 170 7 108 16 265 20
340 2 36 4 65 5 65 1 0 3 41 5 90 6 124 13 244 20 345 5 86 13 224 20 360 2
41 4 75 5 75 0 0 3 47 6 105 2 57 6 106 8 107 3 3 279 5 454 3 l43 0 -5 -47
c-3 -27 -7 -73 -10 -103 -3 -30 -8 -86 -11 -125 -10 -114 -13 -134 -20 -145
-3 -5 -1 -10 5 -10 6 0 8 -4 5 -10 -6 -10 -10 -41 -19 -165 -4 -44 -9 -100
-11 -125 -3 -25 -7 -70 -10 -100 -2 -30 -6 -77 -9 -105 -3 -27 -8 -81 -11
-120 -3 -38 -8 -97 -11 -130 -3 -33 -7 -78 -8 -100 -11 -120 -17 -194 -21
-225 -5 -42 -16 -167 -20 -230 -4 -53 -14 -166 -20 -230 -7 -70 -17 -171 -20
-220 -4 -56 -14 -169 -21 -235 -6 -63 -13 -144 -19 -215 -5 -71 -15 -174 -20
-227 -4 -42 -12 -129 -21 -233 -2 -30 -6 -77 -9 -105 -7 -80 -13 -155 -20
-235 -3 -41 -8 -89 -10 -107 -5 -35 -18 -184 -19 -224 l-1 -25 -278 -1 c-163
0 -280 4 -283 9 -6 9 -15 156 -18 275 0 29 -3 53 -6 53 -3 0 -5 26 -6 58 0 50
-9 203 -19 357 -11 155 -17 268 -19 327 0 38 -3 68 -6 68 -3 0 -5 26 -6 58 -1
31 -4 107 -8 167 -4 61 -9 146 -12 190 -7 123 -11 165 -17 171 -3 3 -5 -19 -5
-48 -1 -29 -3 -87 -6 -128 -3 -41 -8 -111 -11 -155 -3 -44 -7 -111 -10 -150
-6 -89 -14 -226 -21 -335 -2 -47 -7 -116 -9 -155 -2 -38 -7 -113 -10 -165 -3
-52 -7 -122 -10 -155 -3 -33 -7 -103 -10 -155 -3 -52 -8 -131 -11 -175 -4 -44
-6 -87 -6 -96 0 -14 -29 -16 -268 -15 -148 1 -271 3 -273 6 -3 3 -8 37 -12 75
-3 39 -8 88 -10 110 -3 22 -7 65 -10 95 -2 30 -7 80 -10 110 -12 130 -16 178
-21 235 -4 58 -6 75 -19 195 -3 30 -8 82 -10 115 -3 33 -8 80 -10 105 -3 25
-7 74 -9 110 -3 36 -7 85 -10 110 -3 25 -8 72 -11 105 -2 33 -6 74 -9 90 -6
39 -19 200 -20 247 -1 21 -3 38 -6 38 -3 0 -6 26 -6 58 -1 31 -4 77 -7 102 -4
25 -9 77 -12 115 -3 39 -8 90 -11 115 -3 25 -7 74 -9 110 -3 36 -7 79 -9 95
-4 31 -13 117 -21 220 -3 33 -8 83 -11 110 -3 28 -8 75 -9 105 -2 30 -4 55 -5
55 -1 0 -3 25 -5 55 -2 30 -6 75 -9 100 -3 25 -8 74 -11 110 -3 36 -8 83 -10
105 -3 22 -7 69 -10 105 -7 86 -12 140 -20 225 -3 39 -8 90 -10 115 -3 25 -7
68 -10 97 l-6 52 58 3 c92 5 444 0 450 -6z m2105 4 l96 0 -1 -1897 -2 -1898
-270 0 -270 0 -1 1897 0 1897 35 3 c20 2 99 2 176 1 77 -1 184 -2 237 -3z
m2766 -5 c11 -11 8 -379 -3 -387 -5 -4 -74 -8 -152 -8 -141 0 -143 0 -142 -22
0 -49 1 -284 0 -293 0 -11 -1 -169 0 -195 1 -25 0 -464 0 -485 -1 -11 -1 -32
-2 -47 0 -15 2 -32 5 -37 3 -5 46 -9 95 -9 49 1 94 -2 100 -6 6 -4 11 -3 11 1
0 9 79 7 88 -2 4 -3 6 -92 7 -198 l0 -192 -58 -5 c-31 -3 -57 -3 -57 0 0 6
-140 3 -147 -4 -3 -2 -11 -2 -18 0 -7 3 -16 1 -19 -5 -4 -6 -6 -108 -6 -228 1
-120 1 -222 1 -228 0 -18 -1 -140 0 -155 0 -16 0 -452 0 -485 0 -11 0 -76 0
-145 1 -69 1 -129 0 -135 0 -5 0 -50 0 -100 0 -49 0 -99 -1 -110 0 -11 -1 -85
-3 -165 l-2 -145 -270 0 -270 0 0 1895 0 1895 70 5 c99 7 765 3 773 -5z m707
-1892 l0 -1898 -270 -1 -270 -1 0 1898 0 1898 45 3 c25 2 146 2 270 1 l225 -2
0 -1898z m-1773 183 c2 -89 2 -185 0 -214 -3 -48 -5 -51 -22 -42 -13 7 -21 7
-25 0 -4 -6 -12 -7 -23 -1 -9 5 -26 5 -39 0 -13 -5 -25 -4 -28 1 -3 6 -15 6
-30 0 -17 -6 -25 -6 -25 1 0 6 -4 7 -10 4 -13 -8 -90 -12 -90 -5 0 3 -13 5
-30 5 -16 0 -30 -3 -30 -7 0 -4 -10 -4 -22 0 -26 9 -60 8 -76 -2 -6 -3 -13 -2
-17 3 -4 7 -15 7 -30 1 -16 -6 -25 -6 -25 0 0 6 -10 6 -26 0 -16 -6 -32 -7
-42 -1 -10 6 -23 6 -34 0 -10 -6 -19 -5 -23 1 -4 7 -12 7 -25 0 -10 -6 -21 -6
-24 -2 -5 9 -59 8 -73 -1 -5 -3 -15 -2 -23 3 -8 5 -21 5 -31 -1 -10 -5 -20 -5
-23 0 -3 4 -24 5 -46 1 -22 -4 -40 -4 -40 1 0 5 -11 4 -25 -1 -16 -6 -25 -6
-25 0 0 5 -6 7 -14 4 -18 -7 -106 -10 -106 -4 0 3 -13 5 -30 5 -16 0 -30 -2
-30 -5 0 -7 -66 -4 -79 4 -5 4 -12 2 -16 -3 -3 -6 -15 -7 -28 -2 -13 5 -30 5
-39 0 -34 -19 -40 13 -42 216 0 107 3 196 8 198 5 2 312 3 682 3 l673 0 3
-160z"/>
</g>
</svg>
