<?xml version="1.0" encoding="utf-8"?>
<!-- Generator: Adobe Illustrator 22.1.0, SVG Export Plug-In . SVG Version: 6.00 Build 0)  -->
<svg version="1.1" id="Layer_1" xmlns="http://www.w3.org/2000/svg" xmlns:xlink="http://www.w3.org/1999/xlink" x="0px" y="0px"
	 viewBox="0 0 930 250" style="enable-background:new 0 0 930 250;" xml:space="preserve">
<style type="text/css">
	.st0{fill:#003D7C;}
	.st1{fill:#FFE500;}
</style>
<g>
	<g>
		<path class="st0" d="M0,0c310,0,620,0,930,0c0,83.3,0,166.7,0,250c-310,0-620,0-930,0C0,166.7,0,83.3,0,0z M48,48
			C48,99.4,48,150.7,48,202c16,0,32,0.1,47.9,0c0.2-31.7-0.3-63.4,0.3-95.2c10.9,31.6,21.3,63.4,32,95.1c10.5,0.1,21.1,0.1,31.6,0
			c9.8-29.6,19.7-59.2,29.4-88.7c0.7-2.2,1.5-4.4,2.5-6.5c0.2,31.8,0,63.5,0.1,95.3c16,0,32,0.1,48,0c0-51.3,0-102.6,0-153.9
			c-21.6-0.1-43.2,0-64.8,0c-9,21.8-17.7,43.6-26.6,65.4c-1.6,3.6-2.6,7.5-4.9,10.8c-10.2-25.4-20.6-50.7-30.8-76.1
			C91.2,47.9,69.6,48.1,48,48z M258.9,48c-0.1,51.3-0.1,102.6,0,153.9c42.1,0,84.2,0,126.3,0c0-10.1,0.2-20.2,0-30.3
			c-26-0.1-52.1-0.1-78.1,0c-0.2-11-0.1-21.9-0.1-32.9c25.5-0.1,51.1,0,76.6-0.1c-0.1-10.1,0-20.2,0-30.3c-25.5,0-51.1,0.1-76.6,0
			c0-10-0.1-20,0.1-30c23.6,0.2,47.3,0,70.9,0.1c1.9,0,3.8-0.1,5.7-0.3c-0.1-10-0.1-20,0-30C342.1,47.9,300.5,48.1,258.9,48z
			 M397.9,48.1c0,10.1,0,20.2,0,30.3c15.1,0.1,30.1,0.1,45.2,0c0.5,5.9,0.1,11.8,0.3,17.7c0,35.3,0.1,70.6-0.1,105.9
			c16,0.2,32,0,48,0.1c0.2-41.2,0-82.4,0.1-123.6c15.2,0,30.4,0.1,45.6,0c0-10.1,0-20.2,0-30.3C490.6,48,444.2,48,397.9,48.1z
			 M551.2,48.1c0,51.3,0,102.6,0,153.9c16,0.1,32,0.1,48,0c0.1-19.9,0-39.8,0-59.8c6.4,0,12.8-0.2,19.3,0.1
			c9.9,20,20.7,39.6,30.8,59.6c18.4,0.2,36.8,0.1,55.3,0c-12-20.1-24.8-39.6-36.8-59.7c9,0.5,18.3-1.2,25.7-6.7
			c6.9-4.8,11.3-12.9,11.3-21.4c0.1-11.7,0-23.4,0-35.1c0.1-5.2-1.1-10.5-3.6-15.1c-5.3-10.2-17-15.8-28.2-15.9
			C632.4,48,591.8,47.9,551.2,48.1z M749.4,48.6c-9.2,1.5-18.5,6.5-22.6,15.1c-3.4,6.2-3.1,13.4-3,20.3c0,29.3,0,58.7,0,88
			c0,7.9,3.2,15.8,9,21.2c6.2,5.9,14.8,8.7,23.2,8.8c32.7,0,65.4,0,98.1,0c11.2-0.1,22.8-5.7,28.1-15.9c3.2-5.8,3.9-12.6,3.5-19.1
			c0-30,0-60,0-90c0.1-8.5-3.6-17.1-10.5-22.2c-6.4-4.7-14.4-6.8-22.2-6.7c-32.3,0-64.7,0-97,0C753.8,48,751.6,48.2,749.4,48.6z"/>
	</g>
	<path class="st0" d="M599.3,78.3c18.5,0,37.1,0,55.6,0c2.9-0.2,6.3,1.4,6.4,4.7c0.3,6.7,0.2,13.3,0.1,20c0.1,2.6-1.8,5.1-4.5,5.2
		c-7.3,0.5-14.6,0.1-22,0.2c-11.9-0.1-23.9,0.3-35.8-0.2C599.3,98.3,599.2,88.3,599.3,78.3z"/>
	<path class="st0" d="M777.4,78.7c17.2-0.6,34.4-0.1,51.6-0.3c3.7-0.3,8.4,1.5,8.6,5.8c0.2,25.6,0,51.2,0.1,76.9
		c0,2.9,0.2,6.3-2.1,8.6c-1.9,2-5,2-7.5,2c-15.7,0-31.4,0-47.1,0c-2.5,0-5.4-0.4-7.1-2.4c-1.8-1.9-2-4.7-2-7.2
		c0.1-25.7,0-51.4,0.1-77.1C771.7,81.8,774.4,79.1,777.4,78.7z"/>
</g>
<g>
	<path class="st1" d="M48,48c21.6,0,43.2-0.1,64.8,0.1c10.2,25.4,20.5,50.7,30.8,76.1c2.2-3.3,3.3-7.2,4.9-10.8
		C157.3,91.6,166,69.8,175,48c21.6,0,43.2-0.1,64.8,0c0,51.3,0,102.6,0,153.9c-16,0.1-32,0.1-48,0c-0.2-31.8,0.1-63.5-0.1-95.3
		c-1,2.1-1.8,4.3-2.5,6.5c-9.8,29.6-19.7,59.1-29.4,88.7c-10.5,0.1-21.1,0.1-31.6,0c-10.7-31.7-21.1-63.5-32-95.1
		c-0.5,31.7,0,63.5-0.3,95.2c-16,0.1-32,0-47.9,0C48,150.7,48,99.4,48,48z"/>
	<path class="st1" d="M258.9,48c41.6,0,83.2-0.1,124.8,0.1c0,10-0.1,20,0,30c-1.9,0.2-3.8,0.3-5.7,0.3c-23.6-0.1-47.3,0.1-70.9-0.1
		c-0.3,10-0.1,20-0.1,30c25.5,0.1,51.1,0,76.6,0c0,10.1,0,20.2,0,30.3c-25.5,0.1-51.1-0.1-76.6,0.1c0,11-0.2,21.9,0.1,32.9
		c26-0.1,52.1-0.1,78.1,0c0.1,10.1-0.1,20.2,0,30.3c-42.1,0.1-84.2,0-126.3,0C258.8,150.7,258.7,99.4,258.9,48z"/>
	<path class="st1" d="M397.9,48.1c46.4-0.1,92.7,0,139.1,0c0.1,10.1,0,20.2,0,30.3c-15.2,0.1-30.4,0-45.6,0
		c0,41.2,0.1,82.4-0.1,123.6c-16,0-32,0.1-48-0.1c0.1-35.3,0-70.6,0.1-105.9c-0.1-5.9,0.3-11.8-0.3-17.7c-15.1,0.1-30.1,0.1-45.2,0
		C397.9,68.3,397.9,58.2,397.9,48.1z"/>
	<g>
		<path class="st1" d="M551.2,48.1c40.6-0.2,81.2,0,121.8-0.1c11.2,0.1,22.8,5.7,28.2,15.9c2.5,4.6,3.7,9.8,3.6,15.1
			c0,11.7,0.1,23.4,0,35.1c0,8.4-4.4,16.6-11.3,21.4c-7.3,5.5-16.7,7.2-25.7,6.7c11.9,20.1,24.8,39.7,36.8,59.7
			c-18.4,0.1-36.8,0.2-55.3,0c-10.1-20-20.8-39.6-30.8-59.6c-6.4-0.3-12.9-0.1-19.3-0.1c0,19.9,0.1,39.8,0,59.8c-16,0.1-32,0.1-48,0
			C551.2,150.6,551.2,99.4,551.2,48.1z M599.3,78.3c-0.1,10,0,19.9-0.1,29.9c11.9,0.5,23.9,0.1,35.8,0.2c7.3-0.1,14.7,0.3,22-0.2
			c2.7-0.1,4.6-2.6,4.5-5.2c0.1-6.7,0.2-13.3-0.1-20c0-3.3-3.5-4.8-6.4-4.7C636.4,78.3,617.9,78.4,599.3,78.3z"/>
	</g>
	<g>
		<path class="st1" d="M749.4,48.6c2.2-0.4,4.4-0.6,6.6-0.6c32.4,0,64.7,0,97,0c7.8-0.1,15.8,2,22.2,6.7
			c6.9,5.1,10.6,13.8,10.5,22.2c0,30,0,60,0,90c0.3,6.5-0.3,13.3-3.5,19.1c-5.3,10.2-16.9,15.8-28.1,15.9c-32.7,0-65.4,0-98.1,0
			c-8.4-0.1-17-2.9-23.2-8.8c-5.8-5.4-9-13.4-9-21.2c0-29.3,0-58.7,0-88c-0.1-6.8-0.3-14.1,3-20.3C730.9,55,740.2,50.1,749.4,48.6z
			 M777.4,78.7c-3.1,0.4-5.7,3.1-5.5,6.3c-0.1,25.7,0,51.4-0.1,77.1c0,2.5,0.2,5.3,2,7.2c1.8,2,4.6,2.4,7.1,2.4
			c15.7,0,31.4,0,47.1,0c2.6-0.1,5.6,0,7.5-2c2.3-2.2,2.1-5.6,2.1-8.6c-0.1-25.6,0.1-51.2-0.1-76.9c-0.1-4.3-4.9-6.1-8.6-5.8
			C811.8,78.6,794.6,78,777.4,78.7z"/>
	</g>
</g>
</svg>
