<?xml version="1.0" encoding="utf-8"?>
<!-- Generator: Adobe Illustrator 22.1.0, SVG Export Plug-In . SVG Version: 6.00 Build 0)  -->
<svg version="1.1" id="Layer_1" xmlns="http://www.w3.org/2000/svg" xmlns:xlink="http://www.w3.org/1999/xlink" x="0px" y="0px"
	 viewBox="0 0 1666.3 502.9" style="enable-background:new 0 0 1666.3 502.9;" xml:space="preserve">
<g>
	<g>
		<path d="M534.5,1.7c19.1-2.8,39.3-1.3,56.9,6.9c13.5,6.6,25.5,16.7,33.3,29.7c8.9,15.2,10.9,33.7,7.4,50.8
			c-3.9,19.1-16.9,36-34.1,45c-13.9,8.1-30.1,11.8-46.2,11.7c-18.3,0.2-37.3-3.5-52.3-14.4c-14.2-9.6-24.3-24.7-28.8-41.2
			c-4.6-17.6-1.5-36.9,7.8-52.5C490.1,17.5,512,4.9,534.5,1.7z M541.6,8.6c-9.8,1.9-18.9,6.4-27,12c-4.5,3.2-8,7.6-10.5,12.4
			c-7.2,14.5-7.6,31.1-7.3,47c0.7,13.1,2.7,26.8,10.3,37.8c4.3,6.5,11.2,10.4,17.9,13.9c7.7,4,16.2,7,24.9,7.2
			c13.6,0.5,27.7-3.9,38-13.1c10.9-10.7,16.6-25.8,17.8-40.8c1-12.8,0.8-25.8-2.6-38.3c-3.8-13.3-11.9-26.2-24.4-32.8
			C567.3,8.2,554.1,6.2,541.6,8.6z"/>
	</g>
	<path d="M789,3c25.7-5.8,54-1.9,76.1,13c2.1-2.6,3.9-5.4,6.1-8c1.6-2.1,5.9-1.2,5.4,1.9c0,13,0,26,0,39c0.5,3.5-5.6,4-6.1,0.7
		c-2.9-8.2-6.7-16.3-12.7-22.6c-7.1-7.5-15.1-15-25.5-17.3c-13.1-3-27.2-3-40.1,1.1c-12.2,3.7-22,12.9-28.4,23.7
		c-8.8,16.1-10.5,35.3-8,53.2c2.1,15.7,9.6,31.3,22.9,40.5c13,9.4,29.9,12.1,45.5,10.2c22.1-2.8,42.2-19.6,47.5-41.5
		c0.3-3.2,6.6-3.7,6.4-0.1c0.2,13.4,0.2,26.8,0,40.3c0.3,2.7-3.2,2.3-4.8,1.8c-2.8-2.4-4.2-6-6.6-8.8
		c-15.8,10.3-34.6,15.7-53.5,15.6c-19.8-0.1-39.9-5-56.5-16C741,119,729.6,101.9,727.7,83c-1.1-12.4-0.5-25.3,4.5-36.8
		c4.4-9.6,10.4-18.7,18.8-25.3C762.1,12.3,775,5.7,789,3z"/>
	<g>
		<path d="M1036.8,12c6.8-2.3,11.9-7.5,17.2-12c1.2,0.8,2.7,1.4,3.1,2.9c18.9,39.4,37.9,78.8,56.8,118.2c2.2,4.5,4.6,9,8.2,12.6
			c3.1,3,7.6,3.5,11.7,4.4c-0.3,1.2,0.5,3.9-1.6,3.5c-19.1,0-38.2,0.1-57.2,0c-2.6,0.3-2.2-4.1,0.1-4.3c4-0.7,8.3-0.5,11.9-2.5
			c2.9-1.4,4.7-4.8,3.9-8c-0.7-3.5-2.5-6.5-3.9-9.7c-3.9-8.7-7.9-17.3-11.8-25.9c-20,0-40.1,0-60.1,0c-3.9,8.3-7.8,16.5-11.6,24.8
			c-2,5.1-4.6,11.5-0.9,16.4c3.5,4.3,9.5,4.6,14.6,5.5c1.1,1.6,0.1,4.1-2.1,3.7c-14,0.1-28.1,0-42.1,0c-1.3-0.1-4.3,0.5-3.7-1.8
			c-0.4-2.5,2.5-2.8,4.2-3.4c10.5-3.2,16.9-13.2,21.8-22.3c14.9-32.2,29.3-64.5,44.2-96.6C1038.6,15.7,1037.7,13.9,1036.8,12z
			 M1018,85.2c17.9,0,35.7,0,53.6,0c-8.8-19.5-17.5-39.1-26.4-58.5C1035.9,46,1027.2,65.7,1018,85.2z"/>
	</g>
	<g>
		<path d="M1640.5,2.6c7.3-1.5,15.4,0.9,20.4,6.5c5.1,5.2,6.8,13.3,4.4,20.1c-2.5,7.9-10.3,13.5-18.4,14.1c-11,1.3-22.4-7-23.4-18.2
			C1621.9,14.6,1630.1,4.3,1640.5,2.6z M1640.2,7.1c-6.4,1.6-11.7,7.3-12.5,13.9c-1.2,8.5,5.9,16.6,14.1,17.8
			c9.6,2.1,20.3-5.8,20.1-15.9C1662.3,12.1,1650.2,4,1640.2,7.1z"/>
	</g>
	<g>
		<path d="M0,5.3c1.6-0.6,3.3-1,5-0.9c19.4,0,38.7,0,58,0C74.1,5,85.3,5.1,96,8.2c6.6,1.9,13.3,4.6,17.7,10c5.1,6,6.6,14.2,6.1,21.8
			c-0.4,6-3.6,11.7-8.4,15.3c-7.6,5.8-17,8.9-26.3,10.7c0,1.2,0.1,2.4,0.1,3.6c11.7,1.5,24.1,3.1,34.1,9.9
			c8.2,6.5,13.8,16.9,12.8,27.5c-0.6,9-5.9,16.9-12.3,22.9c-4.7,4.4-10.8,6.8-17,8.5c-10.4,2.7-21.2,3.4-31.9,3.3
			c-19.7,0-39.3,0-59,0c-4,0-8.1,0.3-12-0.5v-2.8c5.9-2.3,13.3-1.6,18.2-6.3c1.8-3,1.8-6.7,2-10.2c0-32.7,0-65.3,0-98
			c0-4-0.4-8.7-4-11.3C11.5,9.3,5.3,10.3,0,8.4V5.3z M43.8,21.9c0,15.1,0,30.2,0,45.3c7.8,0.1,15.6-0.7,23.4-1.8
			c7.2-1.5,14.8-3.7,20.1-9.2c5.2-4.9,6.4-12.4,6.3-19.2c-0.2-8.1-4.5-15.9-11.5-20c-9-5.4-20-6.5-30.1-4.6
			C47.3,13.1,43.6,17.2,43.8,21.9z M43.8,74.4c0,15.1,0,30.3,0,45.4c0.1,3.8,0.5,8.2,3.4,10.9c3.1,3,7.6,3.5,11.7,4
			c8.7,0.4,17.7,0.4,26.1-2.3c5.3-1.7,10.4-4.5,13.8-9c7.2-8.9,8.5-21.9,3.8-32.3c-3.2-7.2-10.3-11.8-17.7-14
			C71.6,72.9,57.5,74.8,43.8,74.4z"/>
	</g>
	<g>
		<path d="M230.6,8.8c-1.1-2.1-0.3-4.5,2.4-4.3c15-0.2,30,0,45-0.1c16.6-0.1,33.4-0.2,49.6,4.1c10,2.7,20.4,7.8,25.6,17.2
			c6.2,11.5,5.3,27.5-4.4,36.8c-6.8,6.6-16,9.6-24.8,12.2c5.9,9,12.6,17.4,18.8,26.2c7.6,10.1,14.3,21,23.3,30
			c4.7,4.7,11.8,4.8,17.8,6.6c-0.2,1.4,0.4,4.2-1.8,4.1c-11.7,0.1-23.4,0-35.1,0c-3.1,0-5.3-2.6-6.9-4.9
			c-11.1-16.1-22.4-32.1-33.4-48.4c-3.4-4.2-6.7-9.5-12.3-10.9c-6.2-1.4-12.6-0.9-18.9-1c0,15.5,0,31,0,46.5c0,4.1,0.9,8.6,4.3,11.2
			c4.5,3.1,10.3,2.1,15.1,4.1c2,1.6-0.1,3.7-2,3.5c-19.3,0.1-38.6,0-57.9,0.1c-1.6,0-3.4,0.2-4.7-1c-1.2-1.5,0.6-3.1,2.1-3.3
			c5.2-1,11.2-1.1,15.5-4.8c1.8-1.4,2.3-3.6,2.3-5.7c0.2-4.4,0.8-8.7,0.8-13.1c0-27.3,0-54.6,0-81.9c-0.2-4.7-0.5-9.4-0.9-14.1
			c-0.3-4.2-4.6-6.4-8.1-7.4C238.2,9.9,234.4,9.3,230.6,8.8z M275.5,20c0,16.6,0,33.1,0,49.7c14.5,0.1,30.1,0.4,42.9-7.4
			c7-4.2,11.4-12.2,11.1-20.4c0.4-9.2-3.1-19.1-11.1-24.2C308,10.8,294.9,11,283,11.9C278.7,11.8,275.3,15.7,275.5,20z"/>
	</g>
	<g>
		<path d="M1223.5,5.4c1.2-1.1,2.9-1,4.5-1c16.3,0,32.7,0,49,0c11-0.1,22.1,0.3,33,1.9c10.1,1.6,20.4,4.4,28.6,10.7
			c12,9.1,14.5,27.6,7,40.3c-6.3,9.9-18,14.3-28.8,17.2c4.4,7.6,10.3,14.3,15.3,21.6c8.6,11.3,16.2,23.4,25.8,33.9
			c4.1,4.6,10.6,5.6,16.4,6.8c1.7,0.2,3.7,1.8,2.5,3.6c-0.6,1.6-2.3,1.2-3.6,1.3c-11,0-22.1,0-33.1,0c-3.3,0.1-5.5-2.8-7.3-5.1
			c-11.2-16.2-22.6-32.3-33.6-48.7c-3.2-4-6.2-8.8-11.4-10.4c-6.4-1.6-13.1-1-19.6-1.1c0,15.2,0,30.3,0,45.5c0.1,4.3,1,8.9,4.2,12
			c4.2,2.8,9.5,2.7,14.3,3.6c1.5,0.2,2.4,2.1,1.4,3.4c-1.8,1-4,0.7-6,0.8c-18.9-0.1-37.9,0.1-56.8-0.1c-2.4,0.3-2.7-3.6-0.5-3.9
			c5.5-1.3,11.6-1.4,16.2-5.1c1.2-0.8,1.5-2.3,1.7-3.6c1.4-13,0.7-26.1,0.9-39.1c-0.1-20.5,0.1-41-0.1-61.5c-0.7-4.6,0.3-9.8-2-14
			c-4.4-5-11.5-4.1-17.3-5.7C1222.8,8.1,1223.1,6.5,1223.5,5.4z M1272.2,12.8c-2.9,1.5-4.2,5-4.1,8.1c0,16.3,0,32.5,0,48.8
			c11,0,22.2,0.3,32.8-2.9c6.3-1.9,12.6-5,16.7-10.3c4.5-5.8,5.4-13.6,4.3-20.7c-0.9-7.1-4.6-14-10.7-18c-8.5-5.7-19.1-6.4-29.1-6.2
			C1278.7,11.7,1275.3,11.5,1272.2,12.8z"/>
	</g>
	<g>
		<path d="M1466,8.6c-0.4-1.7-0.5-4.1,1.9-4.1c21.4-0.2,42.7,0,64.1-0.1c20.2,0.6,41.3,5.2,57.3,18.1c13.3,10.9,18.6,28.7,18.7,45.3
			c0.3,14.2-1.2,29.2-8.6,41.7c-7.8,12.3-19.3,23.1-33.5,27.2c-9.1,2.5-18.4,4.6-27.8,4.9c-23.1,0-46.1,0-69.2,0
			c-1.5,0.2-4.2-0.9-2.9-2.8c0.3-1.5,2.2-1.4,3.4-1.7c4-0.6,8.3-1.5,11.4-4.3c2.4-2.3,2.1-5.8,2.3-8.8c0-32,0-64.1,0-96.1
			c0-3.6,0.2-7.2-0.4-10.8c-0.5-3.3-3.7-5.5-6.6-6.6C1472.7,9.9,1469.3,9.4,1466,8.6z M1509.5,12.7c-6,1.8-5.3,9.2-5.3,14.2
			c0,31,0,62.1,0,93.1c0.2,3.4,0.4,7.3,2.9,9.9c2.1,2.6,5.5,3.5,8.7,3.8c15.6,1.2,32.4,0,45.7-9.2c12.4-8.4,18.9-23.1,21.3-37.5
			c2.1-13.4,2.5-27.3-0.5-40.7c-2.1-8.7-6.4-17.6-14.1-22.6C1550.8,13.1,1529.5,10.1,1509.5,12.7z"/>
	</g>
	<g>
		<path d="M1637.2,11.1c4.6,0.2,9.3-0.5,13.9,0.6c3.8,0.9,5.4,5.8,3.9,9.1c-0.8,1.9-2.8,2.8-4.4,3.9c2.1,3.1,4.2,6.3,6.3,9.5
			c-2.2,0-4.3,0-6.4,0c-2-3-4-6-6-9c-0.4,0-1.3,0-1.7,0c0,3,0,6,0,9c-1.9,0-3.7,0-5.5,0C1637.2,26.5,1637.2,18.9,1637.2,11.1z
			 M1642.8,15.1c0,2,0,4.1,0,6.1c2.4-0.3,5.3-0.1,7-2.3C1649.7,15.1,1645.7,15.2,1642.8,15.1z"/>
	</g>
	<path d="M1.5,159.9c543.5,0,1087,0,1630.5,0c0,2.6,0,5.2,0,7.8c-543.5,0-1087,0-1630.5,0C1.5,165.1,1.5,162.5,1.5,159.9z"/>
	<path d="M1024.3,176.7c2.8,0,5.7,0,8.5,0c0.1,5.4-0.3,10.8,0.2,16.2c0.1,3.2,3.7,4,6.2,4.4c3.1,0.3,6.8,0.2,9.1-2.1
		c1.5-6,0.4-12.4,0.7-18.5c2.8,0,5.7,0,8.5,0c-0.1,6.1,0.2,12.1-0.1,18.2c-0.7,4.3-5.4,6.1-9.3,6.6c-5.2,0.4-10.4,0.5-15.6-0.2
		c-3.3-0.9-7.4-2.4-8.1-6.1C1024,189,1024.3,182.8,1024.3,176.7z"/>
	<path d="M1539.6,179.6c5.4-3.7,12.3-3.6,18.5-3.3c4.8,0.2,10.5,2.3,11.7,7.5c-2.9,0.2-5.8,0.4-8.7,0.4c-2.9-5.3-11.2-4.8-15.4-1.5
		c5.7,3.9,13.1,3.1,19.5,5c2.4,0.8,4.9,2.6,5.3,5.4c0.7,2.8-1.4,5.3-3.7,6.6c-5.4,2.9-11.9,2-17.8,1.8c-5.3-0.2-11.5-2.6-12.7-8.4
		c2.6-0.3,5.3-0.5,8-0.6c2.6,5.8,10.1,5.6,15.3,4c1.7-0.2,3-2.5,1.7-3.8c-6.6-2.2-14-1.8-20.3-4.8
		C1537.9,186.5,1536.8,181.8,1539.6,179.6z"/>
	<g>
		<path d="M7.8,176.7c6.4,0,12.8,0,19.2,0c4.1,0.1,8.8,0.3,11.7,3.7c3.2,2.9,1.3,8.3-2.4,9.9c-6.2,2.7-13.2,1.6-19.8,1.9
			c0,3.2,0,6.3,0,9.5c-2.9,0-5.8,0-8.8,0C7.8,193.3,7.8,185,7.8,176.7z M16.5,180.9c0,2.2,0,4.3,0,6.5c4.9-0.4,10.4,1.3,14.7-1.8
			c-0.3-1.1-0.3-2.5-1.2-3.3C25.7,180.5,21,181,16.5,180.9z"/>
	</g>
	<g>
		<path d="M267.2,176.6c3.1,0,6.1,0,9.2,0c5.7,8.3,11.3,16.7,17,25c-3.1,0-6.2,0-9.3,0c-1.4-2-2.7-4-4-6c-5.5,0-11,0-16.5,0
			c-1.2,2-2.4,4-3.6,6c-3.1,0-6.2,0-9.3,0C256.1,193.3,261.8,185,267.2,176.6z M266.6,191.4c3.6,0,7.2,0,10.8,0
			c-1.9-2.9-3.8-5.8-5.8-8.6C270,185.7,268.3,188.6,266.6,191.4z"/>
	</g>
	<g>
		<path d="M506.8,176.7c8.4,0.1,16.8-0.1,25.2,0.1c4.3,0.1,9.6,2.4,9.9,7.3c-0.6,5-6.6,5.7-10.5,6.7c5.8,2,9.6,7.1,14.1,11
			c-3.6-0.1-7.3,0.3-10.8-0.2c-3.8-3.2-7.3-6.8-11.4-9.6c-2.2-1.1-4.8-0.6-7.1-0.7c0,3.5,0,7,0,10.5c-3.1,0-6.2,0-9.2,0
			C506.8,193.3,506.8,185,506.8,176.7z M516,180.9c0,2,0,4,0,6c4.4-0.1,8.8,0.3,13.2-0.2c1.7,0,2.6-1.6,3.7-2.7
			c-0.7-1.2-1.4-2.6-3-2.7C525.3,180.5,520.6,181.1,516,180.9z"/>
	</g>
	<path d="M777.2,176.7c9.6,0,19.2,0,28.8,0c0,1.4,0,2.8,0,4.3c-6.8,0-13.5,0-20.3,0c0,1.8,0,3.7,0,5.5c5.9,0,11.8,0,17.8,0
		c0,1.4,0,2.8,0,4.2c-5.9,0-11.8,0-17.8,0c0,3.7,0,7.3,0,11c-2.8,0-5.7,0-8.5,0C777.2,193.3,777.3,185,777.2,176.7z"/>
	<path d="M1278.3,176.7c4.2,0,8.3,0,12.5,0c2.6,5.5,5.2,11,7.8,16.5c2.4-5.5,4.8-11,7.3-16.5c4.2,0,8.4,0,12.7,0c0,8.3,0,16.7,0,25
		c-2.6,0-5.2,0-7.8,0c0-6.3,0-12.7,0-19c-2.8,6.3-5.4,12.7-8.2,19c-2.9,0-5.8,0-8.6,0c-2.7-6.4-5.3-12.8-8.2-19.1
		c-0.1,6.4,0,12.7-0.1,19.1c-2.5,0-5,0-7.5,0C1278.3,193.3,1278.2,185,1278.3,176.7z"/>
	<g>
		<path d="M729.5,296.7c20.6-5.7,41.8-9,63-11.3c0,72.3,0,144.7,0,217c-4.5,0-9-0.2-13.5,0.5h-26.1c-0.7-0.1-2.2-0.3-2.9-0.4
			c-64.8-1-129.6-5.8-193.5-16.9c-40.8-7.3-81.2-17.1-119.7-32.6c-7.5-2.8-14-7.8-19.1-13.9c-5-5.9-7.7-14.1-5.3-21.7
			c3.1-9.9,11.5-16.9,19.8-22.5c14.9-9.2,32.1-13.8,48.9-18.1c43.5-10.2,88-15.1,132.5-19.1c51.6-4.4,103.4-7.2,155.2-8.3
			c-17.4-2.4-34.8-5.4-51.5-10.8c-7-2.4-14.1-5.1-19.8-9.9c-3-2.5-5.4-6.7-4-10.6c1.6-4.8,5.9-8.1,10-10.8
			C711.4,302.3,720.5,299.3,729.5,296.7z M672,370.9c-26.5,3.6-53,8.3-78.5,16.4c-15.6,5.2-31.3,11.4-44.3,21.9
			c-4,3.5-8.6,7.3-9.8,12.8c-1.3,6.1,1.9,12.1,5.8,16.6c6.1,7.6,15.5,11.2,24.2,14.9c28.4,11.2,58.6,17.3,88.6,22.4
			c14.6,2.2,29.1,4.9,43.8,5.4c22.1,1.1,44.2,1.3,66.3,1.9c0.2-13.4,0.4-26.9,0.3-40.3c0.6-14-0.1-28,0.5-42
			c0-12.4-0.1-24.8,0.3-37.2C736.7,364.3,704.3,366.8,672,370.9z"/>
	</g>
	<g>
		<path d="M811,285.4c12.7,1.3,25.3,3.1,37.9,5.4c14.9,2.9,29.8,6.3,43.7,12.5c6.2,3,12.8,6.5,16.5,12.7c2,3.3,1.5,7.7-1.1,10.5
			c-4.8,5.5-11.9,8.3-18.5,10.8c-17.7,6.3-36.4,9.3-55,12.1c21.8,0,43.7,1.3,65.5,2.2c59.9,3.1,119.8,7.3,179,16.6
			c24.6,4.1,49.2,8.7,72.7,17.3c13.1,4.8,26.1,11.7,34.7,22.9c4.8,6,6.9,14.4,4.3,21.8c-3.2,9-10.8,15.6-18.8,20.3
			c-6.8,3.2-13.9,5.7-20.9,8.3c-33.8,12.2-68.9,20.4-104.3,26.7c-54,9.4-108.8,14.2-163.5,16.1c-11.3,0.6-22.7,0.2-34,1.1h-25.4
			c-4.2-0.7-8.4-0.5-12.6-0.5C811,430.1,811,357.8,811,285.4z M834.2,363.7c0,9.1,0,18.2,0,27.2c0.6,14-0.1,28,0.5,42
			c-0.2,16.8,0.3,33.5,0.3,50.3c23-0.7,46-0.8,69-2c11.2-0.5,22.3-2.5,33.4-4c18.8-2.9,37.5-6.4,55.9-11
			c17.5-4.5,35.1-9.5,51.4-17.6c8.2-3.9,15.6-10.4,18.6-19.1c2.1-5.5-0.2-11.7-4.1-15.7c-11.2-11-25.6-17.8-40.1-23.3
			c-26.2-9.5-53.6-14.7-81.1-18.7C903.6,367.1,868.9,364.3,834.2,363.7z"/>
	</g>
</g>
</svg>
