<?xml version="1.0" encoding="utf-8"?>
<!-- Generator: Adobe Illustrator 22.1.0, SVG Export Plug-In . SVG Version: 6.00 Build 0)  -->
<svg version="1.1" id="Layer_1" xmlns="http://www.w3.org/2000/svg" xmlns:xlink="http://www.w3.org/1999/xlink" x="0px" y="0px"
	 viewBox="0 0 2000 654.6" style="enable-background:new 0 0 2000 654.6;" xml:space="preserve">
<style type="text/css">
	.st0{fill:#E61A27;}
</style>
<g>
	<path class="st0" d="M400.5,0h11.1c16.2,1,32,10.1,40.3,24.1c6.1,11.6,7.9,25.2,5.8,38c-3,19.1-12.5,36.4-23.8,51.8
		c-6.3,8.8-16.1,15.2-26.9,16.7c-5.6,0.8-11.9-0.4-15.8-4.8c-4.9-5.6-5.3-13.7-4.4-20.7c1.9-14,10.7-26.1,21-35.2
		c7.1-6.3,16.9-7.7,26-8c3.8-6.7,4-15.3,0.3-22c-3-5.5-9.2-8.5-15.2-9.2c-10.3-1.2-20.7,1.4-30.3,5.1c-31.5,11.6-59.2,31.6-83.9,54
		c-21.3,19.3-40.8,40.6-60,62c-44.1,52.8-84.4,109.5-113.9,172c-17.4,36.8-30.8,75.5-38.9,115.3c-2.5,11.1-3.3,22.6-3.9,33.9
		c-1,24.2,1.2,49.3,11.7,71.5c7.1,14.5,17.3,28.2,31.7,36.1c16.6,10.4,35.1,18,54.5,21.1c25.3,4.2,51.1,1.6,76.2-2.7
		c41-7.3,81.4-18.2,121.9-27.9c19.8-5,39.9-9.2,59.6-14.8c47.9-12.6,96.8-22.5,146.4-25.3c42.4-2.4,85.7,0.9,126.1,14.9
		c19.1,6.6,37.4,15.6,54.2,26.8c25.4,16.8,50.1,34.8,72.5,55.5c8.6,8.1,17.1,16.5,23.8,26.4c-26.5-18.9-56.7-32.6-88.2-40.8
		c-22.9-5.9-46.7-9.1-70.4-7.2c-15.8,0.3-31.7,4.1-45.4,12.1c-13.2,7.7-24.5,18.6-32.3,31.7c-8.8-15.5-20.4-29.4-34.8-39.9
		c-26.8-20-60.6-28.1-93.5-30c-47.9-2.7-95.6,5.8-141.9,17.6c-18.4,4.8-36.7,10.1-55.3,14.4c-42.9,10.4-85.8,21.2-129.8,26.2
		c-37.6,3.5-77-3.1-109.2-23.5c-16.3-10.3-30.4-24-40.9-40.1c-7.6-11.1-12.4-23.7-16.4-36.5c-5.5-18.1-8-37-8.6-55.9v-11.3
		c1.4-49.8,15.1-98.4,34.1-144.1c16.1-36.9,36-72.1,59-105.1c45.9-65.9,103.7-123.4,169.6-169.3c14.8-9.2,29.8-18,45.4-25.7
		C336.9,12.5,368.1,1.7,400.5,0z"/>
	<path class="st0" d="M1966.5,32.5c11.8-9.9,22.6-20.9,33.5-31.8v0.5c-3.6,5.2-6.1,11-9.4,16.3c-18.4,31.1-41.4,59.6-68.8,83.2
		c-27.6,24.4-59.6,44-94.1,57c-37.2,14-78.6,19.6-117.5,9.7c14.5-19.1,29.8-37.6,45.8-55.5c37.1,4,75-2.4,109.4-16.7
		C1902.1,80,1936.3,58.4,1966.5,32.5z"/>
	<g>
		<path class="st0" d="M1314.8,9.8c18.1-6.3,37.5-9.8,56.7-7.6c14.1,1.6,28.1,7.4,37.7,18.1c12.3-3.9,24.3-8.9,36.7-12.2
			c36.2-10,75.5-7.4,110.4,6.2c18.7,6.9,35.8,17.5,53.3,26.9c27.8,15.4,55.4,31.2,82.3,48.2c-16.9,16.3-32.9,33.7-48.4,51.3
			c-16.6-7.9-31.6-18.6-47.1-28.4c-18.6-12.1-37.1-24.4-56-36c-14.9-8.9-29.9-17.8-46.3-23.8c-12.7-5.3-25.7-9.8-39.3-12.1
			c-11.2-1.8-23.4-2.7-33.9,2.4c1.8,21-0.7,42.2-6.9,62.3c-4.2,14.2-9.9,27.8-15.9,41.3c-2.8,5.8-5,11.9-8.7,17.2
			c-12.1,19.4-25,38.6-40.6,55.5c-16.2,17.7-36,33-59.2,40.1c-8.8,3.2-18.7,2.9-27.3-0.7c-9.8-4.2-14.9-14.7-17.2-24.6
			c-3.7-16.6,1.1-33.7,7.5-49c8-18.8,17.2-37.2,28.9-54c22.7-33.1,52-61.3,84.6-84.6c7.1-4.9,14.2-9.8,21.7-14
			c-4.9-2.7-10.7-3.2-16.2-3.4c-12-0.3-23.6,3.6-34.2,8.8c-36.5,17.9-69.4,42.3-99.2,69.9c-43.1,40-79.9,86-115.1,132.9
			c-12.1,15.6-22.4,32.4-33,48.9c-26.3,41.8-50.3,85.5-66.9,132.2c-9.5,27-16.4,55-20,83.4c-2.3,16.9-1.5,34.6,4.9,50.5
			c4.6,11.6,13,21.9,24,28c10.6,6.3,23.6,7.7,35.6,5.1c17.1-3.7,32.2-13.2,45.9-23.6c14.8-11,27.7-24.4,39.7-38.3
			c22.5-26.5,41.7-56.1,54.8-88.4c7-17.7,12.7-36.2,14.4-55.3c0.6-7.8,0.7-15.8-1.7-23.3c-1.4-4.4-4.4-8.7-9.1-10
			c-8.1-2.2-16.8,0.1-23.8,4.5c-10.3,6.5-18.2,16.1-25.1,26c-15.6,21.4-25.7,46.6-30.2,72.6c-31.9,14.7-59.7,37.4-83.2,63.2
			c2.8-24.2,7.6-48.3,15.9-71.3c7.5-20.4,16.3-40.5,28.7-58.4c17.6-25.8,41.3-48.1,70-60.8c10.9-4.8,22.6-8.1,34.5-9.3
			c10.7-1.1,21.8,2.6,29.6,10c6.6,6,9.9,14.8,12.1,23.2c4.5,18.5,2.3,37.9-1.7,56.4c-2.4,9.8-4.6,19.6-8.4,28.9
			c-14,36-33.3,70-57,100.6c-22.3,28.6-48.5,54.3-78.6,74.6c-13.9,9.1-28.1,18.2-44.2,22.8c-24.1,7.6-51.3,9.8-74.9-0.7
			c-26.2-11.5-44.6-36.3-52.9-63.2c-10.7-34.5-8.2-71.7,0.4-106.4c9.1-32.8,20.7-64.9,35.5-95.6c24.8-52.2,56.7-100.6,91.3-146.8
			c12.2-16.6,25.8-32.2,39.5-47.6c28.7-32.2,59.5-62.7,93.4-89.6C1222.6,51.7,1266.8,25.6,1314.8,9.8z M1361.5,75.3
			c-31.8,25.2-58.1,56.9-78.2,92c-7.9,14.4-16,29.2-19.1,45.5c-1.2,6.6-1.5,14,1.9,20c3,5.1,9,7.6,14.8,7.6
			c7.4,0.2,13.8-3.9,19.9-7.6c19-12.2,35.3-28.2,49.4-45.6c26.8-33.2,45-73.7,50.5-116.2c0.7-7.1,2.3-14.4,0.3-21.4
			C1387.1,56.9,1373.9,65.6,1361.5,75.3z"/>
	</g>
	<g>
		<path class="st0" d="M1809.6,13.3c11.3-4.6,23.9-7.5,36-4.7c7.8,1.9,13.5,9.4,14.3,17.3c2.8,18.1-2.8,36.3-10.7,52.4
			c-2.3,4.7-4.7,9.3-7.1,14c-7.4,2.3-15,4-22.6,5.5c4.7-9.7,9.5-19.5,14.3-29.2c4.7-9.9,8.1-20.7,7.4-31.8c-0.7-2.6-3.2-5.1-6.1-4.5
			c-4,0.7-7.8,2.4-11.3,4.3c-13.8,7.6-25.3,18.6-36.7,29.3c-13.5,13.2-27.5,25.9-40.2,39.9c-24.7,27-46.8,56.2-68,86
			c-34.9,49.7-67,101.4-96.6,154.4c-9.2,16.8-18.5,33.6-26.1,51.2c14.8-8,27.5-19.2,40.4-30c31.1-27.1,60.3-56.4,88.5-86.4
			c29-31.3,57.1-63.5,82.2-98c7.3-0.3,14.6-1.1,21.7-2.4c-9.2,15.8-20.7,29.9-31.8,44.3c-26.7,33.4-55.1,65.5-84.9,96.1
			c-40.4,41.9-84.5,80.4-132.2,113.8c-1.7,1.3-3.9,2.2-4.7,4.4c-16.6,36.1-31.8,73.4-38.7,112.8c-1,7.6-1.2,15.9,2.4,22.9
			c2.7,5.5,9.9,8.2,15.5,5.7c5.8-2.4,10.7-6.7,15.2-11c25.6-25.4,43.3-57.1,62.9-87.1c21.5-33.2,44.1-66,70.5-95.6
			c18.1-20.3,38.1-39.1,60.8-54.2c6.8-4.4,13.6-8.9,21.2-11.8c10.9-4.1,23-6.2,34.4-3.5c4.7,1.3,9.6,3.1,13.1,6.7
			c4.7,4.8,8.8,10.3,12.8,15.8c3-5.6,6.3-11,9.5-16.4c21.3,0,42.7,0,64,0c-31,55-62.1,110.1-93.1,165.1
			c-10.5,16.8-20.8,33.7-30,51.2c-4.6,8.7-9,17.6-12.3,26.9c-1,2.8-1.5,6.4,0.6,8.9c2.5,3.1,7.4,3,10.6,1
			c17.6-10.3,32.4-24.9,45.5-40.4c16.5-19.7,30.7-41.2,44.9-62.7c7.1-0.1,14.3,0,21.4,0c-20.9,34.2-44.3,66.9-70.5,97.3
			c-11.7,13.3-23.9,26.2-37.5,37.5c-12.5,10.8-27.1,18.9-41.9,26.2c-9.8,4.9-21.4,6.3-31.8,2.5c-7.5-2.7-12.6-9.7-14.9-17.1
			c-3.3-10.6-2.9-22.2-0.3-32.9c-11.7,12.2-24.1,23.7-37.8,33.6c-8.4,6-17.3,11.5-27,15.2c-9.7,4-20.9,4.2-30.8,0.7
			c-9.3-3.3-16.2-11.4-19.4-20.5c-4.8-13.6-4.1-28.4-2.2-42.4c-12.8,15.9-26.6,31.1-42.5,44.1c-10.4,8.3-21.7,15.9-34.6,19.6
			c-8.7,2.5-18.4,2.7-26.7-1.2c-9.6-4.6-16.9-13.2-20.9-23c-4.9-12.1-5-25.5-3.8-38.3c2.2-20.5,8-40.4,14.1-60
			c5.3-16.1,10.7-32.2,15.9-48.3c-11.5,2.5-23.3,3.8-35,4.4c-19.7,34.4-40.8,68.2-66.8,98.2c-21.5,24.8-46.6,47.3-76.1,62.2
			c-12.2,5.7-25.9,9.7-39.4,7.3c-9.7-1.6-18.2-8-23.6-16.1c-6-9-8.2-20-8.6-30.7c-0.6-16.8,2.5-33.5,7-49.6
			c6.3-22.6,16.3-44,27.1-64.8c3.4-6.2,6.4-12.7,10.4-18.5c21.3-32.9,44.5-64.9,72.8-92c14.7-14,30.8-26.6,48.7-36.3
			c15.2-8.1,31.8-15.6,49.4-14.4c7.9,0.7,16.6,2.3,22.4,8.3c6.3,5.9,10.4,13.9,12,22.3c2.5,11.9,1.3,24.2-0.3,36.2
			c-4.6,23.8-14.5,46-24.7,67.9c8.4,1.2,16.7-1.3,24.7-3.6c3.4-1.4,7.5-2.1,10.1-4.9c36-74.8,76.7-147.5,125-215.1
			c50-70.1,108.3-134.7,176.2-187.9C1779.5,29.7,1793.7,19.9,1809.6,13.3z M1398.7,350.7c-12.1,7.4-22.7,17.9-27.9,31.3
			c-5.1,13.1-3.5,28.4,3.9,40.3c7.7,12.3,20.3,21.8,34.5,25.2c10.6-18.1,18.7-37.7,24.1-58c1.4-10.8,3.2-22,0-32.7
			c-1.8-5.2-5.4-11.2-11.4-11.9C1413.9,343.6,1405.4,345.9,1398.7,350.7z M1776.5,349.7c-10,2.7-17.6,10-25.2,16.6
			c-37.9,33.9-65.6,77.1-91.6,120.4c-3.8,6.3-7.8,12.5-10.7,19.2c-8.9,18.6-18.2,38-18.6,59.1c-0.4,4.9,2.3,10.8,7.6,11.7
			c6.3,1.7,12.6-1.2,17.6-4.9c5.4-4.2,10.6-8.8,15.6-13.5c20.1-24.8,37.3-51.9,53.7-79.3c21.4-36.4,41.4-73.6,63.3-109.7
			c1.9-3.2,4.3-6.4,4.5-10.3c-0.2-3.2-2.2-6.1-4.4-8.3C1784.8,348.7,1780.4,348.8,1776.5,349.7z M1345.6,418.8
			c-14.4,19-27.5,38.9-39,59.8c-9.7,18-18.6,36.6-23.7,56.5c-2.3,9.9-3.9,20.7-0.3,30.5c2.4,6.7,9.3,11.2,16.3,11.1
			c5.9-0.1,11.6-2.3,16.7-5.2c7.4-4.2,14-9.8,20.2-15.6c12.5-12,23.3-25.6,33.4-39.6c11.1-15.8,21.3-32.2,29.4-49.7
			C1376.6,456.6,1356.4,440.7,1345.6,418.8z"/>
	</g>
	<g>
		<path class="st0" d="M383.6,169.7c13.5-6.7,28.2-12.1,43.4-12.1c11,0,22.6,3.8,29.9,12.5c10,11.4,11.9,27.4,10.7,42
			c-1.3,15.3-5.5,30.3-10.7,44.7c-2.7,7.7-6.2,15.1-8.9,22.8c7.8,0.4,15-3.4,21.8-7c20.7-11.7,39.3-27.1,56-44
			c11-12,22.6-23.6,35.2-34c14.6-12.1,30-23.9,47.8-31c11.3-4.9,23.9-6.9,36.2-5.8c10.3,1,20.7,4.8,27.8,12.4
			c9.3,10,13,24.4,10.9,37.8c-2.5,17.6-10.3,34.3-20.9,48.5c-6.3,8-13.9,16-23.9,19.2c-6.2,2-13.3,0.1-17.6-4.8
			c-4-3.4-4.2-9.1-4.3-13.9c0.4-13.5,8.6-25.2,17.8-34.4c7.1-7.1,17.3-10.2,27.2-9.9c2.9-5.4,3.5-12.4,0.1-17.8
			c-2.7-4.3-8-6.2-12.8-6c-10,0.3-19.2,5.1-27,11c-26.9,21.4-49.5,47.9-68.6,76.4c-18.8,28.4-34.3,58.9-46.2,90.9
			c-5.3,12.9-8.3,27.1-6.5,41c1.1,8.2,4.3,16.6,11.2,21.6c7.8,5.9,18.4,5.5,27.3,2.6c14-4.6,26.4-13.2,37.6-22.7
			c27.5-24.6,51.2-53.2,73.3-82.6c13.6-18.1,26-37.2,39.8-55.2c21.8-28.5,45.4-55.9,72.6-79.4c14-11.9,29.1-23,46.2-29.9
			c10.9-4.3,23.2-6.9,34.7-3.3c9.6,2.9,17.3,10.2,22.5,18.6c2.5-3.9,5-7.8,7.3-11.8c21.1-0.1,42.2-0.1,63.3,0
			c-44.5,77.1-88.8,154.1-133.3,231.2c-2.2,3.9-3.7,8.2-3.5,12.7c0.1,2.9,1.6,6.5,4.9,6.9c4.7,0.6,8.9-2,12.7-4.3
			c11.7-7.3,21.6-17.1,31.2-26.9c19.1-20.1,36-42.2,52.3-64.6c7.2,0,14.5,0,21.7,0c-30.1,43.9-61.8,87.4-101.6,123
			c-14.3,12.4-29.1,24.9-46.6,32.5c-10.3,4.4-22.3,6.5-33,2.4c-7.3-4.1-13.3-11-15.3-19.3c-2.1-9.2-0.5-18.8,0.1-28.1
			c-13.6,15.3-29,29.5-46.8,39.8c-10.8,6-23,10.7-35.7,10c-10.9-0.7-22.2-5.8-28.1-15.4c-5.5-8.6-6.4-19.3-5.8-29.3
			c0.7-13.3,4.8-26,7.8-38.8c-25.7,24.4-50.2,50.8-81.3,68.4c-20.7,11.8-45.3,18.3-69,13.7c-11.2-3.4-21.4-10.2-28.2-19.8
			c-7.4-10.4-11-23-12.3-35.6c-0.9-9.3-2.3-18.8-0.7-28.1c2.9-18.8,9.9-36.6,17.5-54c7-15.8,15.1-31.2,23.6-46.3
			c-10.5,3-21.1,5.6-31.8,7.8c-9.7,16.3-19.5,32.5-29.5,48.6c-12.2,19.6-25.6,38.6-41.6,55.4c-11.6,13.4-24,26-37.5,37.5
			c-13.8,11.6-28.6,22.5-45.3,29.6c-10.5,4.4-22,7.4-33.4,5.8c-13.6-1.8-26.4-11-31.4-24c-8.3-20.2-6.7-42.9-2.5-63.8
			c8.1-37.9,25.5-73.2,46.8-105.4c19.7-29,42.3-56.1,68.2-79.8C345.8,193.4,363.7,179.8,383.6,169.7z M417.6,188.8
			c-10.1,2.4-18,9.6-24.8,16.9c-7.3,8.1-13.3,17.9-15,28.8c-1,6.8-0.8,14,2.5,20.2c6.5,12.6,19.4,21.1,32.9,24.7
			c3.9,0.2,8.4,2.9,11.9,0.6c6-13.8,13-27.4,16.5-42.1c3.1-12.3,5.6-25.6,1.3-37.9c-1.7-4.2-3.8-9-8.3-10.8
			C429.2,186.9,423.1,187.3,417.6,188.8z M837.6,189.7c-10.7,2.8-19.6,9.9-27.6,17.2c-12.9,13.9-24.5,29-36.2,43.9
			c-25.4,32.4-49.5,66.3-67.5,103.5c-6.2,12.8-11.8,26-15.6,39.7c-1.2,4.9-2.6,9.9-2.3,15.1c0.5,5.9,5.7,10.9,11.7,10.8
			c5.9,0.5,10.4-3.9,15-6.7c21.4-14.9,35-37.7,49.1-59.1c30.7-51.3,60.7-103,89.7-155.2C853.3,191.1,844.2,187.6,837.6,189.7z
			 M352.8,259.7c-8.2,11.9-16.3,23.9-24,36.2c-15,24.5-28.9,50.2-36.3,78.1c-2.7,10.1-4.8,21.2-0.8,31.3c2.1,5,5.5,10.4,11.2,11.6
			c7.6,1.5,15.9-0.3,22.3-4.7c22.2-13.7,38.4-34.7,54-55.2c4.3-5.2,7.5-11.2,11.1-16.8c6.3-10.3,12.7-20.6,19-30.9
			c1.5-2.3,2.4-4.9,3.3-7.5c-4.4-1.7-8.9-3-13.3-4.9c-18.7-7.5-35.4-21-44.6-39.1C354,258.3,353.3,259,352.8,259.7z"/>
	</g>
	<path class="st0" d="M982.1,166.3c19.9-0.1,39.8-0.1,59.7,0c-11.3,18.3-22.6,36.6-33.9,55c-20,0-40,0-60,0
		c8.8-14.3,17.6-28.6,26.4-42.9C977,174.4,979.1,169.9,982.1,166.3z"/>
</g>
</svg>
