<?xml version="1.0" encoding="utf-8"?>
<!-- Generator: Adobe Illustrator 22.1.0, SVG Export Plug-In . SVG Version: 6.00 Build 0)  -->
<svg version="1.1" id="Layer_1" xmlns="http://www.w3.org/2000/svg" xmlns:xlink="http://www.w3.org/1999/xlink" x="0px" y="0px"
	 viewBox="0 0 398.1 101.9" style="enable-background:new 0 0 398.1 101.9;" xml:space="preserve">
<style type="text/css">
	.st0{fill:#0068B3;}
</style>
<g>
	<path class="st0" d="M0,0c5.5,0,11,0,16.5,0c5.2,20.4,10.9,40.6,15.7,61c1-5.3,0.4-10.8,0.5-16.1c0.4-9.1,0.3-18.1,0.4-27.2
		c9,0,18.1,0,27.1,0c4.7,14.8,9.2,29.7,13.9,44.6c0.1-14.7,0.1-29.4,0-44c5.5,0,11,0,16.5,0c0,21.7,0,43.3,0,65
		c-9.7,0-19.4,0-29.1,0c-3.9-15.6-8-31.1-11.8-46.7C49,52,49,67.6,48.5,83.2c-9.2,0-18.4,0-27.7,0C13.9,55.5,6.9,27.7,0,0z"/>
	<path class="st0" d="M276.7,30c14.5,0.1,29-0.4,43.5,0.2c0,3.9,0,7.9,0,11.9c-9.3,0-18.5,0-27.8,0c0,2.9,0,5.8,0,8.7
		c8.1,0.2,16.2,0.2,24.4,0c0.1,4.1,0,8.2,0,12.3c-8.1,0-16.2,0-24.4,0c0,2.9,0,5.7,0,8.5c9.3,0,18.6,0,27.9,0c0,4,0,8,0,12
		c-14.3,0-28.7,0-43,0C277.3,65.8,277,47.9,276.7,30z"/>
	<path class="st0" d="M99.5,30.5c6.3,0,12.7,0,19,0c0,17.6,0,35.2,0,52.7c-6.3,0-12.7,0-19,0C99.5,65.6,99.5,48,99.5,30.5z"/>
	<path class="st0" d="M128.2,30.7c8-0.3,15.9,0,23.9-0.3c8.1,11.9,16.1,23.8,24.1,35.8c-0.2-11.9,0.4-23.8-0.3-35.6
		c5.9,0,11.7,0,17.6,0c0,17.6,0,35.1,0,52.6c-8.5,0-17.1,0-25.6,0c-7.4-11.8-14.9-23.6-22.3-35.5c-0.1,11.7,0,23.4,0,35.1
		c-5.8,0.2-11.6,0-17.4,0C128.3,65.5,128.3,48.1,128.2,30.7z"/>
	<path class="st0" d="M203.4,83.2c0-17.5,0-35.1,0-52.6c8.1-0.1,16.1-0.1,24.2-0.2c7.8,12,16,23.7,23.9,35.7
		c0.3-11.9-0.3-23.8-0.2-35.7c5.9,0,11.7,0,17.6,0c-0.1,17.6,0,35.2,0,52.7c-8.5,0-17.1,0.2-25.6-0.4c-7.8-11.5-14.9-23.5-22.4-35.3
		c0,11.9,0,23.8,0,35.7C215,83.2,209.2,83.2,203.4,83.2z"/>
	<path class="st0" d="M329.2,30.5c11.6,0,23.2,0,34.8,0c3.3-0.2,6.4,1.5,8.2,4.3c3.6,5.3,2.9,12.5,0.8,18.2c-1.5,4.1-5.4,7-9.8,7.1
		c11.6,13.9,23.2,27.9,34.8,41.9c-6.1,0.1-12.2,0-18.3,0c-10.7-13.9-21.5-27.7-32.2-41.6c0-2,0-4.1,0-6.2c3.6,0.3,7.9,1,10.8-1.8
		c2-2,1.8-4.9,1.9-7.5c-3.9-4-10-3.5-15.1-3.1c-0.5,13.9-0.1,27.8-0.1,41.6c-5.3,0-10.5,0-15.8,0C329.3,65.8,329.3,48.1,329.2,30.5z
		"/>
</g>
</svg>
