<?xml version="1.0" encoding="utf-8"?>
<!-- Generator: Adobe Illustrator 22.1.0, SVG Export Plug-In . SVG Version: 6.00 Build 0)  -->
<svg version="1.1" id="full" xmlns="http://www.w3.org/2000/svg" xmlns:xlink="http://www.w3.org/1999/xlink" x="0px" y="0px"
	 viewBox="0 0 647.2 78.1" style="enable-background:new 0 0 647.2 78.1;" xml:space="preserve">
<style type="text/css">
	.st0{fill:#D8AA28;}
	.st1{fill:#006433;}
	.st2{fill:#2E5189;}
	.st3{fill:#F6743F;}
	.st4{fill-rule:evenodd;clip-rule:evenodd;fill:#006433;}
</style>
<g>
	<g>
		<path class="st0" d="M69.8,22L69.8,22L69.8,22L69.8,22c-0.5-0.3-1.2-0.5-1.7-0.3c-3.1-0.3-6-0.3-9.1-0.2h-0.1l-0.1,0
			c-1.6,0-3.2,0-4.8,0c-13.1-0.3-13.1-0.3-13.1-0.3c-3.1-0.1-6.4-0.1-9.7,0.1c-2.4,0-4.8,0.1-7.2,0.2c-2.5,0.1-8.5,0.1-12.1,0.1
			c-1.9,0-2.9,0-3,0c-0.4,0-0.9,0.6-0.9,1.1c0,0.3,0.2,0.6,0.6,0.6c0.3,0,2.5,0,6.4,0l4,0c1.1,0,1.6,0,1.8,0l0,0
			c3-0.3,5.9-0.3,8.8-0.3h0h0.2c1.9,0,3.8,0,5.7-0.1l0,0c0.4,0.1,0.8,0,1.2-0.1l0.1,0c0.2,0,0.4-0.1,0.6-0.1
			c0.4,0.1,0.9,0.1,1.5,0.1c0.5,0,1,0,1.5,0.1v0h0.1v0c0.4-0.1,0.8-0.1,1.2,0c0,0,0.1,0,0.1,0c0.2,0,0.4,0.1,0.5,0.1
			c3.7-0.1,7.9,0,13,0.4l2.4,0.3l0,0l0,0h0l0,0c2.2-0.2,4.4,0,6.6,0.1c0,0,0.1,0,0.1,0c1.6,0.1,3.2,0.2,4.7,0.2l0,0l0.1,0v0l0.8-0.6
			h0l0,0l0,0C70.3,23,70.2,22.4,69.8,22L69.8,22z"/>
		<path class="st1" d="M48.2,49.8L48.2,49.8l0.1-0.2l-0.1-5.1v0v0c-0.1-0.8-0.1-1.6-0.1-2.5c0-1,0-2.1-0.2-3c0-1.3-0.3-2.7-0.5-4.1
			L47.2,34l0-0.1l-0.1-0.1c-0.2-0.2-0.3-0.5-0.3-0.8c-0.1-0.2-0.1-0.5-0.3-0.7c-0.3-0.6-0.9-1.2-1.4-1.8l0,0
			c-0.1-0.2-0.3-0.2-0.4-0.3c-0.1,0-0.1-0.1-0.2-0.2L44.4,30l-0.1,0l-0.1-0.1c-0.4-0.3-0.8-0.5-1.3-0.6l0,0
			c-0.1-0.2-0.4-0.2-0.6-0.2v-0.1l-0.2,0L41,28.7l-0.2,0l-0.1,0.1c0,0.1-0.1,0.1-0.3,0c-0.1,0-0.2-0.1-0.4-0.1l-0.1,0l-0.1,0.1
			c0,0-0.1-0.1-0.1-0.1l-0.5-0.1l0,0.2c-0.2,0-0.4,0-0.5,0.1h-0.2h-0.5l-0.7,0l0.1,0.3l0,0c-0.3-0.1-0.5,0.1-0.7,0.2
			c0,0,0,0-0.1,0.1c-0.2,0-0.4,0.1-0.5,0.2c-0.1,0.1-0.1,0.1-0.2,0.1l-0.1,0l-0.1,0.1c-0.1,0.1-0.4,0.3-0.6,0.4l-0.4,0.2l0.1,0.1
			c-0.1,0-0.1,0.1-0.2,0.1h-0.1h-0.3v0.3v0c0,0,0,0,0,0L34,30.7c0,0-0.1,0.2-0.1,0.2c-0.2,0.3-0.5,0.6-0.8,1c-0.4,0.4-0.7,0.8-1,1.2
			L32,33.2l0.1,0.1c-0.1,0-0.2,0.1-0.3,0.4c-0.1,0.1-0.2,0.3-0.2,0.5c0,0,0,0.1,0,0.1c-0.2,0.2-0.2,0.4-0.2,0.5c0,0.1,0,0.2-0.1,0.2
			l-0.2,0.2l0.1,0.1c-0.1,0.1-0.1,0.3-0.1,0.4c0,0,0,0.1,0,0.1L31,35.9l0,0.2c0.1,0.4,0,0.7,0,1c0,0.3-0.1,0.7-0.1,1.1
			c-0.1,0.2-0.1,0.5-0.1,0.6c0,0.1,0,0.1,0,0.2l-0.2,0.1l0.1,0.2c0.1,0.2,0,0.4-0.1,0.7c-0.1,0.2-0.2,0.5-0.1,0.8c0,0,0,0-0.1,0.1
			c0,0-0.1,0.1-0.1,0.2c0,0.2,0,0.3,0,0.3l-0.1,0.3l0,0.1l0.2,0.2c0,0.2,0,0.3,0,0.4c0,0.2,0,0.3,0,0.3L30.4,43l0.2,0.2c0,0,0,0,0,0
			c0,0.1,0,0.3,0.1,0.5c0,0,0,0.1,0,0.1l-0.3,0.1l0.2,0.4c0,0,0,0.1,0,0.1c0,0.1-0.1,0.3,0,0.5c-0.1,0.2,0,0.4,0,0.6
			c0,0,0,0.1,0,0.1c-0.3,0.3-0.1,0.6-0.1,0.8c-0.1,0.2-0.1,0.4-0.1,0.5l-0.3,0.1l0.4,0.4c0,0.1,0,0.2,0,0.3c0,0.1,0.1,0.1,0.2,0.1
			l-0.1,0c0,0,0,0,0,0h0l0.1,0.3l0,0c0,0.2,0,0.4,0.1,0.5c0,0-0.1,0.1-0.1,0.2l-0.1,0.1l0.1,0.2c0.1,0.1,0.1,0.3,0,0.7
			c-0.1,0.3-0.2,0.6,0,0.9l-0.2,0.2l0.3,0.2c0,0,0,0,0,0c-0.1,0.1-0.2,0.3,0,0.6l0,0c0.1,0.1,0,0.3,0,0.5c0,0.3-0.1,0.6,0.1,1l0,0.3
			l0,0c0,0.1,0,0.3,0,0.3l-0.1,0l0.1,0.2c0.1,0.2,0.1,0.6,0.1,0.9c0,0.6,0,1.3,0.6,1.8l0.1,0.1l0.2,0c0.4-0.1,0.4-0.5,0.4-0.8
			c0-0.1,0-0.1,0-0.1l0-0.1l0-0.1c-0.2-0.6-0.1-1.3,0-1.9c0-0.2,0-0.3,0-0.5l0-0.1l0-0.1c-0.1-0.2-0.1-0.5-0.1-0.7
			c0-0.2,0.1-0.5,0-0.8c0.1-1.2,0-2.6,0-3.8c0-0.5,0-1,0-1.5l0,0l0,0C32,46,32,45.4,32,44.8c0-0.5,0-1.1,0-1.6
			c0.1-0.6,0.1-1.1,0.1-1.7c0-0.3,0-0.5,0-0.8l0-0.1l0,0c0.1-0.2,0.2-0.3,0.1-0.5c0.1-0.2,0.1-0.4,0.1-0.6c0-0.1,0-0.3,0-0.4l0-0.1
			l0-0.1c0-0.1,0-0.3,0-0.4c0-0.2,0.1-0.4,0-0.6c0.2-0.4,0.3-1,0.3-1.5l0-0.2c0-0.1,0-0.2-0.1-0.3c0,0,0,0,0,0
			c0-0.2,0.1-0.4,0.3-0.7c0.2-0.3,0.4-0.6,0.4-1l0-0.1l0,0c0,0,0,0,0.1-0.1c0.1-0.1,0.3-0.2,0.3-0.4c0,0,0-0.1,0-0.1
			c0.2-0.2,0.3-0.4,0.4-0.6c0.2-0.3,0.3-0.5,0.6-0.6l0.2,0l0-0.2c0-0.2,0.2-0.3,0.4-0.4c0.2-0.1,0.4-0.2,0.5-0.4
			c0.2,0,0.3,0,0.4-0.1c0.2-0.1,0.4-0.2,0.6-0.3c0.3-0.2,0.3-0.3,0.5-0.2l0.2,0.1l0.1-0.1c0,0,0,0,0,0c0.1,0,0.2-0.1,0.3-0.2
			c0.1,0,0.2,0,0.2-0.1c0.1-0.1,0.2-0.1,0.2,0c0,0,0.1,0.1,0.3,0l0,0l0.2,0l0.3,0c0.8-0.1,1.5-0.2,2.2,0.1l0.2,0.1l0.1-0.2
			c0,0,0.1,0.1,0.1,0.1c0.2,0.2,0.5,0.5,0.9,0.4c0.1,0.1,0.2,0.1,0.3,0.2c0,0,0.1,0.1,0.1,0.1v0l0.1,0.1c0.1,0.2,0.4,0.3,0.6,0.3
			c0.5,0.5,1,1.2,1,1.5v0.3h0.2c0,0,0,0,0,0c0.1,0.4,0.2,0.8,0.5,1.1c-0.1,0.2,0,0.4,0,0.5c0,0,0,0.1,0,0.1l-0.1,0.2l0.2,0.2l0,0
			c0,0.2,0.1,0.4,0.1,0.5c0,0,0,0.1,0,0.1l0,0.1c-0.3,0.5,0.1,0.8,0.3,0.9c0,0,0,0,0.1,0c-0.1,0.1-0.1,0.2-0.1,0.4l0,0.2l0.1,0.1
			c0,0,0,0,0,0c0,0,0,0,0,0c0,0,0,0.1,0.1,0.2l-0.1,0.1l-0.1,0.3l0.1,0.2l0.1,0.1c0,0.1,0,0.2,0.1,0.3c0,0,0,0,0,0l0,0.1
			c-0.1,0.5-0.2,1.1,0.1,1.6c0,0,0,0,0,0c-0.1,0.2-0.1,0.4-0.1,0.5c0,0,0,0.1,0,0.2l-0.1,0.3c0,0,0.1,0,0.2,0.1c0,0,0,0.1,0,0.1
			l-0.1,0.3h0.1c0,0.1,0,0.2,0,0.3c0,0.2,0,0.3-0.1,0.4l0,0l0,0c-0.1,0.3,0,0.6,0.1,0.8c0,0,0,0.1,0.1,0.1c-0.1,0.1-0.1,0.1-0.1,0.2
			c0,0,0,0,0,0.1l-0.1,0.1l0.1,0.2c0,0.1,0.1,0.2,0.2,0.2l0,0c0,0,0,0.2,0,0.2V45l-0.2,0l0.1,0.2c0,0.1-0.1,0.2,0,0.3l-0.1,0.2
			c0,0,0,0.1,0.1,0.2c-0.1,0.4,0.2,0.7,0.3,0.8c0.1,0.1,0.1,0.1,0.1,0.2h-0.1l0.1,0.4l0,0c0,0-0.1,0-0.1,0.1l-0.2,0.1l0.1,0.3l0,0.1
			c-0.1,0.2,0,0.3,0,0.3c0,0,0,0,0,0c-0.1,0.1-0.2,0.2-0.2,0.4l0,0.3l0.2,0c0,0.1,0,0.1,0,0.2c0,0.1,0,0.2-0.1,0.3h0c0,0,0,0,0,0
			l0.4,0.2c-0.1,0.1-0.1,0.2-0.1,0.3c0,0,0,0.1,0,0.1c0,0,0,0,0,0h-0.3l0,0.4c0,0,0,0.1,0,0.2c0,0.1,0,0.1,0,0.2v0.4
			c0,0.1,0,0.1,0,0.2l0,0l0,0.2c0,0.1,0,0.2,0,0.3c0,0.1,0,0.1,0,0.2L46,52.2l0.3,0.3l0,0c0,0.1-0.1,0.2-0.1,0.3H46l0.4,0.5
			c0,0,0.1,0.1,0.1,0.2c0,0,0,0,0,0c-0.2,0.1-0.2,0.4-0.2,0.5c0,0,0,0.1,0,0.2l0,0l0.1,0.1c-0.1,0.1-0.1,0.1-0.1,0.2
			c0,0.1,0,0.2,0,0.3h-0.4l0.3,0.3l-0.3,0.1l0.2,0.2v0.8c0,0.1,0.1,0.3,0.2,0.3c0,0,0,0,0,0c0.2,0.1,0.3,0.1,0.5,0.1v0.3l0.4-0.1
			c0.3-0.1,0.5-0.1,0.7,0l0.3,0.1l0-0.3c0.1-1.1,0.1-2.2,0.1-3.3c0-1-0.1-2,0.1-3C48.3,50.1,48.2,49.9,48.2,49.8L48.2,49.8z"/>
		<path class="st2" d="M26.5,49.8L26.5,49.8l0.1-0.2l-0.1-5.1v0v0c-0.1-0.8-0.1-1.6-0.1-2.5c0-1,0-2.1-0.2-3c0-1.3-0.3-2.7-0.5-4.1
			L25.5,34l0-0.1l-0.1-0.1c-0.2-0.2-0.3-0.5-0.4-0.8c-0.1-0.2-0.1-0.5-0.3-0.7c-0.3-0.6-0.9-1.2-1.4-1.8l0,0
			c-0.1-0.2-0.3-0.2-0.4-0.3c-0.1,0-0.1-0.1-0.2-0.2L22.7,30l-0.1,0l-0.1-0.1c-0.4-0.3-0.8-0.5-1.3-0.6l0,0
			c-0.1-0.2-0.4-0.2-0.6-0.2v-0.1l-0.2,0l-1.1-0.2l-0.2,0L19,28.8c0,0.1-0.1,0.1-0.3,0c-0.1,0-0.2-0.1-0.4-0.1l-0.1,0l-0.1,0.1
			c0,0-0.1-0.1-0.1-0.1l-0.5-0.1l0,0.2c-0.2,0-0.4,0-0.5,0.1h-0.2h-0.5l-0.7,0l0.1,0.3l0,0c-0.3-0.1-0.5,0.1-0.7,0.2
			c0,0,0,0-0.1,0.1c-0.2,0-0.4,0.1-0.5,0.2c-0.1,0.1-0.1,0.1-0.2,0.1l-0.1,0l-0.1,0.1c-0.1,0.1-0.4,0.3-0.6,0.4l-0.4,0.2l0.1,0.1
			c-0.1,0-0.1,0.1-0.2,0.1h-0.1h-0.3v0.3v0c0,0,0,0,0,0l-0.2-0.1c0,0-0.2,0.2-0.2,0.2c-0.2,0.3-0.5,0.6-0.8,1
			c-0.4,0.4-0.7,0.8-1,1.2l-0.1,0.1l0.1,0.1c-0.1,0-0.2,0.1-0.3,0.4c-0.1,0.1-0.2,0.3-0.2,0.5c0,0,0,0.1,0,0.1
			c-0.2,0.2-0.2,0.4-0.2,0.5c0,0.1,0,0.2-0.1,0.2l-0.2,0.2l0.1,0.1c-0.1,0.1-0.1,0.3-0.1,0.4c0,0,0,0.1,0,0.1l-0.1,0.1l0,0.2
			c0,0.4,0,0.7,0,1c0,0.3-0.1,0.7-0.1,1.1c-0.1,0.2-0.1,0.5-0.1,0.6c0,0.1,0,0.1,0,0.2L9,39.1l0.1,0.2c0.1,0.2,0,0.4-0.1,0.7
			C9,40.2,8.9,40.5,9,40.8c0,0,0,0-0.1,0.1c0,0-0.1,0.1,0,0.2c0,0.2,0,0.3,0,0.3l-0.1,0.3l0,0.1l0.2,0.2c0,0.2,0,0.3,0,0.4
			c0,0.2,0,0.3,0,0.3L8.8,43l0.2,0.2c0,0,0,0,0,0c0,0.1,0,0.3,0.1,0.5c0,0,0,0.1,0,0.1l-0.3,0.1L9,44.2c0,0,0,0.1,0,0.1
			c0,0.1-0.1,0.3,0,0.5c-0.1,0.2,0,0.4,0,0.6c0,0,0,0.1,0,0.1c-0.3,0.3-0.1,0.6-0.1,0.8c-0.1,0.2-0.1,0.4-0.1,0.5l-0.4,0.1l0.4,0.4
			c0,0.1,0,0.2,0,0.3c0,0.1,0.1,0.1,0.2,0.1l-0.1,0c0,0,0,0,0,0l0,0l0.1,0.3l0,0c0,0.2,0,0.4,0.1,0.5c0,0-0.1,0.1-0.1,0.2L9,49.1
			l0.1,0.2c0.1,0.1,0.1,0.3,0,0.7c-0.1,0.3-0.2,0.6,0,0.9L9,51.1l0.2,0.2c0,0,0,0,0,0c-0.1,0.1-0.2,0.3,0,0.6l0,0c0,0.1,0,0.3,0,0.5
			c0,0.3-0.1,0.6,0.1,1l0,0.3l0,0c0,0.1,0,0.3,0,0.3l-0.1,0l0.1,0.2c0.1,0.2,0.1,0.6,0.1,0.9c0,0.6,0,1.3,0.6,1.8l0.1,0.1l0.2,0
			c0.4-0.1,0.4-0.5,0.4-0.8c0-0.1,0-0.1,0-0.1l0-0.1l0-0.1c-0.2-0.6-0.1-1.3,0-1.9c0-0.2,0-0.3,0-0.5l0-0.1l0-0.1
			c-0.1-0.2-0.1-0.5-0.1-0.7c0-0.2,0.1-0.5,0-0.8c0.1-1.2,0-2.6,0-3.8c0-0.5,0-1,0-1.5v0l0,0c-0.1-0.6-0.1-1.2,0-1.8
			c0-0.5,0-1.1,0-1.6c0.1-0.6,0.1-1.1,0.1-1.7c0-0.3,0-0.5,0-0.8v-0.1l0,0c0.1-0.2,0.2-0.3,0.1-0.5c0.1-0.2,0.1-0.4,0.1-0.6
			c0-0.1,0-0.3,0-0.4l0-0.1l0-0.1c0-0.1,0-0.3,0-0.4c0-0.2,0.1-0.4,0-0.6c0.2-0.4,0.3-1,0.3-1.5l0-0.2c0-0.1,0-0.2-0.1-0.3
			c0,0,0,0,0,0c0-0.2,0.1-0.4,0.3-0.7c0.2-0.3,0.4-0.6,0.4-1l0-0.1l0,0c0,0,0,0,0.1-0.1c0.1-0.1,0.3-0.2,0.3-0.4c0,0,0-0.1,0-0.1
			c0.2-0.2,0.3-0.4,0.4-0.6c0.2-0.3,0.3-0.5,0.6-0.6l0.2,0l0-0.2c0-0.2,0.2-0.3,0.4-0.4c0.2-0.1,0.4-0.2,0.5-0.4
			c0.2,0,0.3,0,0.4-0.1c0.2-0.1,0.4-0.2,0.6-0.3c0.3-0.2,0.3-0.3,0.5-0.2l0.2,0.1l0.1-0.1c0,0,0,0,0,0c0.1,0,0.2-0.1,0.3-0.2
			c0.1,0,0.1,0,0.2-0.1c0.1-0.1,0.2-0.1,0.2,0c0.1,0,0.2,0.1,0.3,0l0,0l0.2,0l0.3,0c0.8-0.1,1.5-0.2,2.2,0.1l0.2,0.1l0.1-0.2
			c0,0,0.1,0.1,0.1,0.1c0.2,0.2,0.4,0.5,0.9,0.4c0.1,0.1,0.2,0.1,0.3,0.2c0,0,0.1,0.1,0.1,0.1v0l0.1,0.1c0.1,0.2,0.4,0.3,0.6,0.3
			c0.5,0.5,1,1.2,1,1.5v0.3h0.2c0,0,0,0,0,0c0.1,0.4,0.2,0.8,0.5,1.1c-0.1,0.2,0,0.4,0,0.5c0,0,0,0.1,0,0.1l-0.1,0.2l0.2,0.2l0,0
			c0,0.2,0.1,0.4,0.1,0.5c0,0,0,0.1,0,0.1l0,0.1c-0.2,0.5,0.1,0.8,0.3,0.9c0,0,0,0,0.1,0c-0.1,0.1-0.1,0.2-0.1,0.4l0,0.2l0.1,0.1
			c0,0,0,0,0,0c0,0,0,0,0,0c0,0,0,0.1,0.1,0.2l-0.1,0.1l-0.1,0.3l0.1,0.2l0.1,0.1c0,0.1,0,0.2,0.1,0.3c0,0,0,0,0,0l0,0.1
			c-0.1,0.5-0.2,1.1,0.1,1.6c0,0,0,0,0,0c-0.1,0.2-0.1,0.4-0.1,0.5c0,0,0,0.1,0,0.2l-0.1,0.3c0,0,0.1,0,0.2,0.1c0,0,0,0.1,0,0.1
			l-0.1,0.3h0.1c0,0.1,0,0.2,0,0.3c0,0.2,0,0.3-0.1,0.4l0,0l0,0c-0.1,0.3,0,0.6,0.1,0.8c0,0,0,0.1,0.1,0.1c-0.1,0.1-0.1,0.1-0.1,0.2
			c0,0,0,0,0,0.1l-0.1,0.1l0.1,0.2c0,0.1,0.1,0.2,0.2,0.2l0,0c0,0,0,0.2,0,0.2V45l-0.2,0l0.1,0.2c0,0.1-0.1,0.2,0,0.3l-0.1,0.2
			c0,0,0,0.1,0.1,0.2c-0.1,0.4,0.2,0.7,0.3,0.8c0.1,0.1,0.1,0.1,0.1,0.2h-0.1l0.1,0.4l0,0c0,0-0.1,0-0.1,0.1l-0.2,0.1l0.1,0.3l0,0.1
			c-0.1,0.2,0,0.3,0,0.3c0,0,0,0,0,0c-0.1,0.1-0.2,0.2-0.2,0.4l0,0.3l0.2,0c0,0.1,0,0.1,0,0.2c0,0.1-0.1,0.2-0.1,0.3h0c0,0,0,0,0,0
			l0.4,0.2c-0.1,0.1-0.1,0.2-0.1,0.3c0,0,0,0.1,0,0.1c0,0,0,0,0,0h-0.3l0,0.4c0,0,0,0.1,0,0.2c0,0.1,0,0.1,0,0.2v0.4
			c0,0.1,0,0.1,0,0.2l0,0l0,0.2c0,0.1,0,0.2,0,0.3c0,0.1,0,0.1,0,0.2l-0.3,0.1l0.3,0.3c0,0,0,0,0,0c0,0.1-0.1,0.2-0.1,0.3h-0.2
			l0.4,0.5c0,0,0.1,0.1,0.1,0.2c0,0,0,0,0,0c-0.1,0.1-0.2,0.4-0.2,0.5c0,0,0,0.1,0,0.2c0,0,0,0,0,0l0.1,0.1
			c-0.1,0.1-0.1,0.1-0.1,0.2c0,0.1,0,0.2,0,0.3h-0.4l0.3,0.3l-0.3,0.1l0.2,0.2v0.8c0,0.1,0.1,0.3,0.2,0.3c0,0,0,0,0,0
			c0.2,0.1,0.3,0.1,0.5,0.1v0.3l0.4-0.1c0.3-0.1,0.5-0.1,0.7,0l0.3,0.1l0-0.3c0.1-1.1,0.1-2.2,0.1-3.3c0-1-0.1-2,0.1-3
			C26.7,50.1,26.6,49.9,26.5,49.8L26.5,49.8z"/>
		<path class="st3" d="M69.5,50.2L69.5,50.2l0.1-0.2l-0.1-5.1v0v0c-0.1-0.8-0.1-1.6-0.1-2.5c0-1,0-2-0.2-3c0-1.3-0.3-2.7-0.5-4.1
			l-0.2-0.9l0-0.1l-0.1-0.1c-0.2-0.2-0.3-0.5-0.4-0.8c-0.1-0.2-0.1-0.5-0.3-0.7c-0.3-0.6-0.9-1.2-1.4-1.8l0,0
			c-0.1-0.2-0.3-0.2-0.4-0.3c-0.1,0-0.1-0.1-0.2-0.2l-0.1-0.1l-0.1,0l-0.1-0.1c-0.4-0.3-0.8-0.5-1.3-0.6h0c-0.1-0.2-0.4-0.2-0.6-0.2
			v-0.1l-0.2,0l-1.1-0.2l-0.2,0L62,29.2c0,0.1-0.1,0.1-0.3,0c-0.1,0-0.2-0.1-0.4-0.1l-0.1,0l-0.1,0.1c0,0-0.1-0.1-0.1-0.1l-0.5-0.1
			l0,0.2c-0.2,0-0.4,0-0.5,0.1h-0.2h-0.5l-0.7,0l0.1,0.3c0,0,0,0,0,0c-0.3-0.1-0.5,0.1-0.7,0.2c0,0,0,0-0.1,0
			c-0.2,0-0.4,0.1-0.5,0.2c-0.1,0.1-0.1,0.1-0.2,0.1l-0.1,0L57,30.2c-0.1,0.1-0.4,0.3-0.6,0.3l-0.4,0.2l0.1,0.1
			c-0.1,0-0.1,0.1-0.2,0.1h-0.1h-0.3v0.3v0c0,0,0,0,0,0l-0.2-0.1c0,0-0.1,0.2-0.1,0.2c-0.2,0.3-0.5,0.6-0.8,0.9
			c-0.4,0.4-0.7,0.8-1,1.2l-0.1,0.1l0.1,0.1c-0.1,0-0.2,0.1-0.3,0.4c-0.1,0.2-0.2,0.4-0.2,0.5c0,0,0,0.1,0,0.1
			c-0.2,0.2-0.2,0.4-0.2,0.5c0,0.1,0,0.2-0.1,0.2l-0.2,0.2l0.1,0.1c-0.1,0.1-0.1,0.3-0.1,0.4c0,0,0,0.1,0,0.1l-0.1,0.1l0,0.2
			c0.1,0.4,0,0.7,0,1c0,0.3-0.1,0.7,0,1.1c-0.1,0.2-0.1,0.5-0.1,0.6c0,0.1,0,0.1,0,0.2l-0.2,0.1l0.1,0.2c0.1,0.2,0,0.4-0.1,0.7
			c-0.1,0.2-0.1,0.5-0.1,0.8c0,0,0,0-0.1,0.1c0,0-0.1,0.1-0.1,0.2c0,0.2,0,0.3,0,0.3L51.7,42l0,0.1l0.2,0.2c0,0.2,0,0.3,0,0.4
			c0,0.2,0,0.3,0,0.3l-0.2,0.3l0.2,0.2c0,0,0,0,0,0c0,0.1,0,0.3,0.1,0.5c0,0,0,0.1,0,0.1l-0.3,0.1l0.2,0.4c0,0,0,0.1,0,0.1
			c0,0.1-0.1,0.3,0,0.5c-0.1,0.2,0,0.4,0,0.6c0,0,0,0.1,0,0.1c-0.3,0.3-0.1,0.6-0.1,0.8c-0.1,0.2-0.1,0.4-0.1,0.5l-0.4,0.1l0.4,0.4
			c0,0.1,0,0.2,0,0.3c0,0.1,0.1,0.1,0.1,0.1l-0.1,0c0,0,0,0,0,0h0l0.1,0.3l0,0c0,0.2,0,0.4,0.1,0.5c0,0-0.1,0.1-0.1,0.2L52,49.5
			l0.1,0.2c0.1,0.2,0.1,0.3,0,0.7c-0.1,0.3-0.2,0.6,0,0.9l-0.2,0.2l0.3,0.2c0,0,0,0,0,0c-0.1,0.1-0.2,0.3,0,0.6l0,0
			c0.1,0.1,0,0.3,0,0.5c0,0.3-0.1,0.6,0.1,1l0,0.4l0,0c0,0.1,0,0.2,0,0.3l-0.1,0.1l0.1,0.2c0.1,0.2,0.1,0.6,0.1,0.9
			c0,0.6,0,1.3,0.6,1.8l0.1,0.1l0.2,0c0.4-0.1,0.4-0.5,0.4-0.8c0,0,0-0.1,0-0.1l0-0.1l0-0.1c-0.2-0.6-0.1-1.3,0-1.9
			c0-0.2,0-0.3,0-0.5l0-0.1l0-0.1c-0.1-0.2-0.1-0.5-0.1-0.7c0-0.2,0.1-0.5,0-0.8c0.1-1.2,0-2.6,0-3.8c0-0.5,0-1,0-1.5v0l0,0
			c-0.1-0.6-0.1-1.2,0-1.8c0-0.5,0-1.1,0-1.6c0.1-0.6,0.1-1.1,0.1-1.7c0-0.3,0-0.5,0-0.8l0-0.1l0,0c0.1-0.2,0.2-0.3,0.1-0.5
			c0.1-0.2,0.1-0.4,0.1-0.6c0-0.2,0-0.3,0-0.4l0-0.1l0-0.1c0-0.1,0-0.3,0-0.4c0-0.2,0.1-0.4,0-0.6c0.2-0.4,0.3-1,0.3-1.5l0-0.2
			c0-0.1,0-0.2-0.1-0.3v0c0-0.2,0.1-0.4,0.3-0.7c0.2-0.3,0.4-0.6,0.4-1l0-0.1l0,0c0,0,0,0,0.1-0.1c0.1-0.1,0.3-0.2,0.3-0.4
			c0,0,0-0.1,0-0.1c0.2-0.2,0.3-0.4,0.4-0.6c0.2-0.3,0.3-0.5,0.6-0.6l0.2,0l0-0.2c0-0.2,0.2-0.3,0.4-0.4c0.2-0.1,0.4-0.2,0.5-0.4
			c0.2,0,0.3,0,0.4-0.1c0.3-0.1,0.4-0.2,0.6-0.3c0.3-0.2,0.4-0.3,0.5-0.2l0.2,0.1l0.1-0.1c0,0,0,0,0,0c0.1,0,0.2-0.1,0.3-0.2
			c0.1,0,0.1,0,0.2-0.1c0.1-0.1,0.2-0.1,0.2,0c0.1,0,0.1,0.1,0.3,0l0,0l0.2,0l0.3,0c0.8-0.1,1.5-0.2,2.2,0.1l0.2,0.1l0.1-0.2
			c0,0,0.1,0.1,0.1,0.1c0.2,0.2,0.4,0.5,0.9,0.4c0.1,0.1,0.2,0.1,0.3,0.2c0,0,0.1,0.1,0.1,0.1v0l0.1,0.1c0.1,0.2,0.4,0.3,0.6,0.3
			c0.5,0.5,1,1.2,1,1.5v0.3h0.2l0,0c0.1,0.4,0.2,0.8,0.5,1.1c-0.1,0.2,0,0.4,0,0.5c0,0,0,0.1,0,0.1l-0.1,0.2l0.2,0.2l0,0
			c0,0.2,0.1,0.4,0.1,0.5c0,0,0,0.1,0,0.1l0,0.1c-0.3,0.5,0.1,0.8,0.2,0.9c0,0,0,0,0.1,0.1c-0.1,0.1-0.1,0.2-0.1,0.4l0,0.2l0.1,0.1
			h0c0,0,0,0,0,0c0,0,0,0.1,0.1,0.2l-0.1,0.1l-0.1,0.3l0.1,0.2l0.1,0.1c0,0.1,0,0.2,0.1,0.3c0,0,0,0,0,0l0,0.1
			c-0.1,0.5-0.2,1.1,0.1,1.5c0,0,0,0,0,0c-0.1,0.2-0.1,0.4-0.1,0.5c0,0,0,0.1,0,0.2l-0.1,0.3c0,0,0.1,0,0.2,0.1c0,0,0,0.1,0,0.1
			l-0.1,0.3h0.1c0,0.1,0,0.2,0,0.3c0,0.2,0,0.3-0.1,0.4l0,0l0,0c-0.1,0.3,0,0.6,0.1,0.8c0,0,0,0.1,0,0.1c0,0.1-0.1,0.1-0.1,0.2
			c0,0,0,0,0,0.1l-0.1,0.1l0,0.2c0,0.1,0.1,0.2,0.2,0.2l0,0c0,0,0,0.2,0,0.2v0.1l-0.2,0.1l0.1,0.2c0,0.1-0.1,0.2,0,0.3l-0.1,0.2
			c0,0,0,0.1,0.1,0.2c-0.1,0.4,0.2,0.7,0.3,0.8c0.1,0.1,0.1,0.1,0.1,0.2h-0.1l0.1,0.4l0,0c0,0-0.1,0.1-0.1,0.1l-0.2,0.1l0.1,0.3
			l0,0.1c0,0.2,0,0.3,0,0.3c0,0,0,0,0,0c-0.1,0.1-0.2,0.2-0.2,0.4l0,0.3l0.2,0c0,0.1,0,0.1-0.1,0.2c0,0.1,0,0.2-0.1,0.3h0
			c0,0,0,0,0,0L68,50c0,0.1-0.1,0.2-0.1,0.3c0,0,0,0.1,0,0.1c0,0,0,0,0,0h-0.3l0,0.4c0,0.1,0,0.1,0,0.2c0,0.1,0,0.1,0,0.2v0.4
			c0,0,0,0.1,0,0.2l0,0l0,0.2c0,0.1,0,0.2,0,0.3c0,0.1,0,0.1,0,0.2l-0.3,0.1l0.3,0.3c0,0,0,0,0,0c0,0.1-0.1,0.2-0.1,0.3h-0.2
			l0.4,0.5c0,0,0.1,0.1,0.1,0.2c0,0,0,0,0,0c-0.2,0.1-0.2,0.4-0.2,0.5c0,0,0,0.1,0,0.2l0,0l0.1,0.1c-0.1,0.1-0.1,0.1-0.1,0.2
			c0,0.1,0,0.2,0,0.3h-0.4l0.3,0.3l-0.3,0.1l0.2,0.2v0.8c0,0.1,0.1,0.2,0.2,0.3c0,0,0,0,0,0C67.7,57,67.9,57,68,57v0.3l0.4-0.1
			c0.3-0.1,0.5-0.1,0.7-0.1l0.3,0.1l0-0.3c0.1-1.1,0.1-2.2,0.1-3.3c0-1-0.1-2,0.1-3C69.6,50.4,69.6,50.3,69.5,50.2L69.5,50.2z"/>
		<path class="st3" d="M73.9,73.9H4.1V4.1h69.8V73.9z M0,0v78.1h78.1V0H0z"/>
	</g>
	<path class="st4" d="M605.1,33.3c0-11,0-13,0.1-15.4c0.1-2.5,0.7-3.8,2.7-4.1c0.9-0.1,1.3-0.2,2-0.2c0.6,0,1-0.1,1-0.7
		c0-0.5-0.5-0.7-1.5-0.7c-2.5,0-7,0.2-8.8,0.2c-1.7,0-6.3-0.2-10.1-0.2c-1.1,0-1.6,0.1-1.6,0.7c0,0.5,0.4,0.7,1.2,0.7
		c1,0,2.2,0.1,2.8,0.2c2.4,0.5,3,1.7,3.1,4.1c0.1,2.3,0.1,4.3,0.1,15.4v12.7c0,6.7,0,12.4-0.4,15.4c-0.3,2.1-0.7,3.7-2.1,4
		c-0.7,0.1-1.5,0.3-2.6,0.3c-0.9,0-1.2,0.2-1.2,0.6c0,0.5,0.5,0.7,1.4,0.7c2.9,0,7.5-0.2,9.1-0.2c1.8,0,6.4,0.2,10.4,0.2
		c0.8,0,1.4-0.2,1.4-0.7c0-0.4-0.4-0.6-0.9-0.6c-0.9,0-2.5-0.1-3.5-0.3c-1.8-0.3-2.5-1.9-2.6-3.9c-0.2-3.1-0.2-8.8-0.2-15.5v-6.6
		h0.4l0.8,1.1c1.5,2.1,15.8,18.8,19,21.7c3.1,2.7,5.1,4.3,9,4.7c1.5,0.1,2.8,0.1,5,0.1h6.3c1.4,0,1.7-0.2,1.7-0.7
		c0-0.4-0.4-0.6-1-0.6c-0.9,0-2.3-0.2-4.5-1.1c-3.9-1.5-7.2-4.8-10.4-7.8c-2.8-2.7-17-18-19.6-21.4c2.5-2.6,13.4-13.5,15.6-15.6
		c3.1-3,5.6-4.6,7.8-5.4c1.4-0.5,3.2-0.8,4.2-0.8c0.7,0,1.1-0.1,1.1-0.7c0-0.5-0.5-0.7-1.2-0.7c-2.3,0-6.2,0.2-8.5,0.2
		c-2,0-5.9-0.2-7.5-0.2c-0.8,0-1.2,0.1-1.2,0.7c0,0.4,0.3,0.6,0.9,0.7c0.7,0.1,1,0.7,1,1.4c0,1.2-1.6,3-3.6,5.4
		c-2.1,2.5-12.7,13.2-15.1,15.9h-0.4V33.3z"/>
	<path class="st4" d="M548.5,35.3c-0.2,0-0.4-0.1-0.4-0.5v-1.5c0-11,0-13,0.1-15.3c0.1-2.5,0.7-3.8,2.7-4.1c0.9-0.1,1.5-0.2,2.1-0.2
		c0.9,0,1.3-0.1,1.3-0.7c0-0.5-0.5-0.7-1.5-0.7c-2.8,0-7.4,0.2-9.1,0.2c-2,0-6.5-0.2-10.4-0.2c-1,0-1.5,0.1-1.5,0.7
		c0,0.5,0.4,0.7,1.2,0.7c1,0,2.2,0.1,2.8,0.2c2.4,0.5,3,1.7,3.1,4.1c0.1,2.3,0.1,4.3,0.1,15.3v12.7c0,6.7,0,12.4-0.4,15.4
		c-0.3,2.1-0.7,3.7-2.1,4c-0.7,0.1-1.5,0.3-2.6,0.3c-0.9,0-1.2,0.2-1.2,0.6c0,0.5,0.5,0.7,1.4,0.7c2.9,0,7.5-0.2,9.1-0.2
		c2,0,6.6,0.2,11.3,0.2c0.9,0,1.4-0.2,1.4-0.7c0-0.4-0.4-0.6-1.2-0.6c-1.1,0-2.7-0.1-3.7-0.3c-2.2-0.3-2.6-1.9-2.8-3.9
		c-0.4-3.1-0.4-8.8-0.4-15.5v-6.4c0-0.4,0.2-0.4,0.4-0.4h27.7c0.2,0,0.4,0.1,0.4,0.4v6.4c0,6.7,0,12.4-0.4,15.4
		c-0.3,2.1-0.7,3.7-2.1,4c-0.7,0.1-1.5,0.3-2.6,0.3c-0.9,0-1.2,0.2-1.2,0.6c0,0.5,0.5,0.7,1.5,0.7c2.8,0,7.4-0.2,9-0.2
		c2,0,6.6,0.2,11.3,0.2c0.9,0,1.4-0.2,1.4-0.7c0-0.4-0.4-0.6-1.2-0.6c-1.1,0-2.7-0.1-3.7-0.3c-2.2-0.3-2.6-1.9-2.8-3.9
		c-0.4-3.1-0.4-8.8-0.4-15.5V33.3c0-11,0-13,0.1-15.3c0.1-2.5,0.7-3.8,2.7-4.1c0.9-0.1,1.5-0.2,2.1-0.2c0.9,0,1.3-0.1,1.3-0.7
		c0-0.5-0.5-0.7-1.5-0.7c-2.8,0-7.4,0.2-9.1,0.2c-2,0-6.5-0.2-10.4-0.2c-1,0-1.5,0.1-1.5,0.7c0,0.5,0.4,0.7,1.2,0.7
		c1,0,2.2,0.1,2.8,0.2c2.4,0.5,3,1.7,3.1,4.1c0.1,2.3,0.1,4.3,0.1,15.3v1.5c0,0.4-0.2,0.5-0.4,0.5H548.5z"/>
	<path class="st4" d="M476.3,37c-2.1-0.6-6.7-1.1-9-1.2c-1.7-0.1-2.7-0.2-3.4-0.3c-0.1,0-0.2-0.1-0.3-0.1V34c0-9.3,0-14.3,1.5-15.7
		c1.2-1.1,3.8-1.3,9.5-1.3c3.9,0,6.7,0.1,8.5,2c0.9,0.9,1.7,3,1.9,4.4c0.1,0.7,0.2,1.1,0.8,1.1c0.5,0,0.6-0.4,0.6-1.2
		c0-0.8-0.5-6.3-1.1-8.4c-0.4-1.6-0.8-2-4.6-2c-5.2,0-9.7-0.2-13-0.1c-0.4,0-0.8,0-1.2,0v0c-2.2,0-4.7,0.2-7.8,0.2
		c-1.4,0-6-0.2-9.8-0.2c-1.1,0-1.6,0.1-1.6,0.7c0,0.5,0.4,0.6,1.2,0.6c1,0,2.2,0.1,2.8,0.2c2.4,0.5,3,1.7,3.1,4.1
		c0.1,2.3,0.1,4.3,0.1,15.3v12.7c0,6.6,0,12.3-0.4,15.4c-0.3,2.1-0.7,3.7-2.1,4c-0.7,0.1-1.5,0.3-2.6,0.3c-0.9,0-1.2,0.2-1.2,0.6
		c0,0.5,0.5,0.7,1.4,0.7c1.4,0,3.3-0.1,5-0.1c1.7-0.1,3.3-0.1,4.1-0.1c1.1,0,3.2,0.1,5.4,0.2c2.1,0.1,4.2,0.2,5.1,0.2
		c13.3,0,19.3-8,19.3-15.7C488.7,43.5,482.2,39,476.3,37z M471.1,64.4c-1.7,0-3.3-0.1-5.3-0.9c-2.3-0.9-2.5-2.2-2.5-6.9V39.5
		c0-0.4,0.1-0.5,0.4-0.5c1.1,0,1.8,0,3.1,0.1c2.8,0.1,4.5,0.7,6,1.7c5.5,3.8,7,9.9,7,14.4C479.9,62.7,474.4,64.4,471.1,64.4z"/>
	<path class="st1" d="M555.8,65.9L537,66v-0.6c-0.2,0.1-0.3,0.1-0.5,0.1c-2.8,0-3.6-1.8-6.1-7.8c-4.6-11-16.2-40.6-18-44.6
		c-0.7-1.7-1.2-2.3-1.8-2.3c-0.7,0-1.2,0.8-2,2.9l-18.2,45.5c-1.5,3.6-2.8,6.1-6.2,6.5c-0.6,0.1-0.6,0.1-1.3,0.1
		c-0.6,0-0.9,0.2-0.9,0.6c0,0.6,0.4,0.7,1.4,0.7c3.7,0,6.8-0.2,7.6-0.2c2.3,0,5.4,0.2,7.7,0.2c0.8,0,1.2-0.1,1.2-0.7
		c0-0.4-0.2-0.6-1.1-0.6h-1.1c-2.2,0-2.9-0.9-2.9-2.2c0-0.9,0.4-2.6,1.1-4.4l3.9-10.4c0.1-0.4,0.3-0.6,0.7-0.6h16.1
		c0.4,0,0.6,0.2,0.7,0.5l5.8,15.4c0.3,0.9-0.1,1.5-0.7,1.7c-0.7,0.1-1,0.2-1,0.6c0,0.5,0.9,0.5,2.2,0.6c5.8,0.1,11.1,0.1,13.7,0.1
		c1.6,0,12.1,0,16.8,0c1,0,1.8-0.3,1.8-0.9C556.1,66.1,556,66,555.8,65.9z M515.4,44.7H502c-0.3,0-0.4-0.2-0.3-0.5l6.7-17.8
		c0.1-0.3,0.2-0.7,0.4-0.7c0.2,0,0.3,0.4,0.4,0.7l6.5,17.9C515.8,44.5,515.7,44.7,515.4,44.7z"/>
	<path class="st1" d="M167,33.3c0-10.9,0-12.9-0.1-15.2c-0.1-2.4-0.7-3.6-3.1-4.1c-0.6-0.1-1.8-0.2-2.8-0.2c-0.8,0-1.2-0.1-1.2-0.6
		c0-0.5,0.5-0.6,1.6-0.6c3.8,0,8.3,0.2,10.3,0.2c2.9,0,7.1-0.2,10.4-0.2c9,0,12.2,3,13.3,4.1c1.6,1.5,3.6,4.7,3.6,8.5
		c0,10.2-7.5,17.3-17.6,17.3c-0.4,0-1.1,0-1.5-0.1c-0.4-0.1-0.9-0.1-0.9-0.6c0-0.6,0.5-0.8,2-0.8c4,0,9.6-4.5,9.6-11.8
		c0-2.4-0.2-7.2-4.2-10.8c-2.6-2.4-5.5-2.8-7.2-2.8c-1.1,0-2.2,0.1-2.8,0.3c-0.4,0.1-0.6,0.6-0.6,1.4v28.7c0,6.6,0,12.3,0.4,15.3
		c0.2,2,0.6,3.6,2.8,3.9c1,0.1,2.6,0.3,3.7,0.3c0.8,0,1.1,0.2,1.1,0.6c0,0.5-0.6,0.7-1.4,0.7c-4.7,0-9.2-0.2-11.1-0.2
		c-1.6,0-6.2,0.2-9,0.2c-0.9,0-1.4-0.2-1.4-0.7c0-0.4,0.3-0.6,1.1-0.6c1.1,0,1.9-0.1,2.6-0.3c1.4-0.3,1.8-1.9,2.1-3.9
		c0.4-3,0.4-8.7,0.4-15.3V33.3z"/>
	<path class="st1" d="M205.4,48c-0.4,0-0.5,0.1-0.6,0.6l-3.9,10.2c-0.7,1.8-1.1,3.5-1.1,4.4c0,1.3,0.6,2.2,2.9,2.2h1.1
		c0.9,0,1.1,0.1,1.1,0.6c0,0.6-0.4,0.7-1.2,0.7c-2.3,0-5.4-0.2-7.6-0.2c-0.8,0-3.4,0.2-7.1,0.2c-0.9,0-1.4-0.1-1.4-0.7
		c0-0.4,0.3-0.5,0.9-0.6c0.9-0.1,1.2-0.2,1.7-0.3c2.6-0.4,3.8-2.7,5.2-6.3l18-45c0.9-2.1,1.3-2.9,2-2.9c0.6,0,1.1,0.6,1.8,2.3
		c1.7,3.9,13.2,33.2,17.8,44.1c2.7,6.5,4.8,7.5,6.3,7.8c1.1,0.2,2.2,0.3,3,0.3c0.6,0,0.9,0.1,0.9,0.6c0,0.6-0.6,0.7-3.3,0.7
		c-2.6,0-7.8,0-13.5-0.1c-1.3-0.1-2.2-0.1-2.2-0.6c0-0.4,0.3-0.6,1-0.6c0.5-0.1,1-0.8,0.6-1.6l-5.7-15.2c-0.1-0.4-0.4-0.5-0.7-0.5
		H205.4z M220,44.4c0.4,0,0.4-0.2,0.4-0.4l-6.5-17.7c-0.1-0.3-0.1-0.6-0.4-0.6c-0.2,0-0.4,0.4-0.4,0.6l-6.6,17.6
		c-0.1,0.3,0,0.5,0.3,0.5H220z"/>
	<path class="st1" d="M247.7,33.3c0-10.9,0-12.9-0.1-15.2c-0.1-2.4-0.7-3.6-3.1-4.1c-0.6-0.1-1.8-0.2-2.8-0.2
		c-0.8,0-1.2-0.1-1.2-0.6c0-0.5,0.5-0.6,1.6-0.6c3.8,0,8.3,0.2,9.7,0.2c3.5,0,6.3-0.2,8.7-0.2c13,0,15.3,7,15.3,10.8
		c0,5.9-3.4,9.4-7.3,12.5c5.9,2,13,7.1,13,15.5c0,7.7-5.9,15.6-19.1,15.6c-0.9,0-2.9-0.1-5-0.2c-2.2-0.1-4.3-0.2-5.4-0.2
		c-0.8,0-2.4,0-4.1,0.1c-1.6,0-3.5,0.1-4.9,0.1c-0.9,0-1.4-0.2-1.4-0.7c0-0.4,0.3-0.6,1.1-0.6c1.1,0,1.9-0.1,2.6-0.3
		c1.4-0.3,1.8-1.9,2.1-3.9c0.4-3,0.4-8.7,0.4-15.3V33.3z M256.3,34.5c0,0.6,0.2,0.7,0.5,0.8c0.6,0.1,1.7,0.2,3.4,0.2
		c2.4,0,3.9-0.3,5.2-1.4c1.9-1.5,2.9-4.1,2.9-7.6c0-4.8-2.8-11.1-9-11.1c-1,0-1.6,0-2.4,0.1c-0.5,0.1-0.6,0.4-0.6,1.2V34.5z
		 M265.8,40.2c-1.5-1.1-3.2-1.6-5.9-1.7c-1.3-0.1-2-0.1-3.1-0.1c-0.3,0-0.4,0.1-0.4,0.5v17c0,4.7,0.2,5.9,2.5,6.9
		c1.9,0.8,3.6,0.9,5.2,0.9c3.2,0,8.7-1.7,8.7-9.2C272.7,50,271.2,44,265.8,40.2z"/>
	<path class="st1" d="M335.2,36.4h0.4c2.4-2.7,12.9-13.3,15-15.8c2-2.4,3.6-4.2,3.6-5.4c0-0.8-0.3-1.3-1-1.4
		c-0.6-0.1-0.9-0.3-0.9-0.7c0-0.5,0.4-0.6,1.1-0.6c1.5,0,5.4,0.2,7.4,0.2c2.2,0,6.2-0.2,8.4-0.2c0.7,0,1.2,0.1,1.2,0.6
		c0,0.5-0.4,0.6-1.1,0.6c-1,0-2.8,0.3-4.2,0.8c-2.2,0.9-4.7,2.4-7.7,5.4c-2.2,2.2-13,12.9-15.5,15.5c2.6,3.4,16.6,18.5,19.4,21.1
		c3.2,3,6.4,6.2,10.2,7.7c2.2,0.9,3.6,1.1,4.4,1.1c0.5,0,0.9,0.1,0.9,0.6c0,0.5-0.4,0.7-1.7,0.7h-6.2c-2.2,0-3.4,0-4.9-0.1
		c-3.9-0.4-5.8-1.9-8.9-4.7c-3.2-2.8-17.3-19.4-18.8-21.4l-0.8-1.1h-0.4v6.5c0,6.6,0,12.3,0.2,15.3c0.1,2,0.8,3.6,2.6,3.9
		c1,0.1,2.6,0.3,3.5,0.3c0.6,0,0.9,0.2,0.9,0.6c0,0.5-0.6,0.7-1.4,0.7c-4,0-8.5-0.2-10.3-0.2c-1.6,0-6.2,0.2-9,0.2
		c-0.9,0-1.4-0.2-1.4-0.7c0-0.4,0.3-0.6,1.1-0.6c1.1,0,1.9-0.1,2.6-0.3c1.4-0.3,1.8-1.9,2.1-3.9c0.4-3,0.4-8.7,0.4-15.3V33.3
		c0-10.9,0-12.9-0.1-15.2c-0.1-2.4-0.7-3.6-3.1-4.1c-0.6-0.1-1.8-0.2-2.8-0.2c-0.8,0-1.2-0.1-1.2-0.6c0-0.5,0.5-0.6,1.6-0.6
		c3.8,0,8.3,0.2,10,0.2c1.7,0,6.2-0.2,8.7-0.2c1,0,1.5,0.1,1.5,0.6c0,0.5-0.4,0.6-1,0.6c-0.7,0-1.1,0.1-2,0.2
		c-1.9,0.4-2.5,1.6-2.7,4.1c-0.1,2.3-0.1,4.3-0.1,15.2V36.4z"/>
	<path class="st1" d="M380.7,59.9c-7-6.2-8.9-14.2-8.9-21.1c0-4.9,1.5-13.3,8.4-19.6c5.2-4.7,12-7.6,22.7-7.6
		c4.4,0,7.1,0.3,10.4,0.7c2.7,0.4,5,1,7.2,1.2c0.8,0.1,1.1,0.4,1.1,0.9c0,0.6-0.2,1.4-0.4,3.9c-0.1,2.4-0.1,6.3-0.2,7.7
		c-0.1,1.1-0.2,1.6-0.9,1.6c-0.6,0-0.7-0.6-0.7-1.6c-0.1-2.2-1-4.7-2.8-6.6c-2.4-2.5-8-4.4-14.5-4.4c-6.2,0-10.3,1.6-13.5,4.4
		c-5.2,4.8-6.6,11.6-6.6,18.6c0,17.1,13,25.5,22.6,25.5c6.4,0,10.2-0.7,13.1-4c1.2-1.4,2.2-3.4,2.4-4.7c0.2-1.1,0.4-1.4,0.9-1.4
		c0.5,0,0.6,0.5,0.6,1.1c0,0.9-0.9,7.1-1.6,9.5c-0.4,1.2-0.6,1.6-1.9,2.1c-2.9,1.1-8.3,1.6-12.9,1.6
		C395.4,67.7,387.2,65.5,380.7,59.9z"/>
	<path class="st1" d="M157.1,65.4c-1.1,0-2.7-0.1-3.7-0.3c-2.2-0.3-2.7-1.6-2.9-3.5c-0.3-3.1-0.3-8.7-0.3-15.7V33.3
		c0-10.9,0-12.9,0.1-15.2c0.1-2.5,0.7-3.7,2.7-4.1c0.9-0.1,1.4-0.2,2.2-0.2c0.7,0,1.1-0.1,1.1-0.7c0-0.4-0.6-0.6-1.5-0.6
		c-2.7,0-49.8,0-52.6,0c-1.1,0-1.7,0.1-1.7,0.6c0,0.6,0.4,0.7,1.1,0.7c0.9,0,1.8,0.1,2.6,0.3c1.6,0.4,2.3,1.6,2.4,4
		c0.1,2.3,0.1,4.3,0.1,15.2v12.6c0,7,0,12.6-0.4,15.6c-0.2,2.1-0.6,3.3-2.1,3.6c-0.6,0.1-1.5,0.3-2.6,0.3c-0.9,0-1.1,0.2-1.1,0.6
		c0,0.5,0.5,0.7,1.4,0.7c2.9,0,7.4-0.2,9-0.2c1.9,0,6.5,0.2,11.2,0.2c0.8,0,1.4-0.2,1.4-0.7c0-0.4-0.4-0.6-1.1-0.6
		c-1.1,0-2.7-0.1-3.7-0.3c-2.1-0.3-2.7-1.6-2.9-3.5c-0.3-3.1-0.3-8.7-0.3-15.7V33.3c0-10.9,0-12.4,0.2-14.7c0.1-2.5,0.7-3.3,2.7-3.7
		c0.5-0.1,0.9-0.1,1.3-0.2h17.4c0.5,0,1.1,0.1,1.5,0.2c1.6,0.4,2.3,1.2,2.4,3.6c0.1,2.3,0.1,3.8,0.1,14.7v12.6c0,7,0,12.6-0.4,15.6
		c-0.2,2.1-0.6,3.3-2.1,3.6c-0.6,0.1-1.5,0.3-2.6,0.3c-0.9,0-1.1,0.2-1.1,0.6c0,0.5,0.5,0.7,1.4,0.7c2.9,0,7.4-0.2,9-0.2
		c1.9,0,6.5,0.2,11.2,0.2c0.8,0,1.4-0.2,1.4-0.7C158.2,65.6,157.8,65.4,157.1,65.4z"/>
	<g>
		<path class="st1" d="M288.7,33.3c0-10.9,0-12.9-0.1-15.2c-0.1-2.4-0.7-3.6-3.1-4.1c-0.6-0.1-1.8-0.2-2.8-0.2
			c-0.8,0-1.2-0.1-1.2-0.6c0-0.5,0.5-0.6,1.6-0.6c1.9,0,4,0.1,5.8,0.1c1.9,0.1,3.5,0.1,4.5,0.1c2.3,0,16.5,0,17.9-0.1
			c1.4-0.1,2.5-0.3,3.1-0.4c0.4-0.1,0.8-0.3,1.1-0.3c0.4,0,0.4,0.3,0.4,0.6c0,0.5-0.4,1.4-0.6,4.7c-0.1,0.7-0.2,3.9-0.4,4.7
			c-0.1,0.4-0.2,0.8-0.7,0.8c-0.5,0-0.6-0.4-0.6-1c0-0.5-0.1-1.7-0.4-2.6c-0.5-1.3-1.2-2.1-4.8-2.6c-1.2-0.1-8.7-0.3-10.2-0.3
			c-0.4,0-0.5,0.2-0.5,0.7v18.1c0,0.5,0.1,0.8,0.5,0.8c1.6,0,9.8,0,11.4-0.1c1.7-0.1,2.8-0.4,3.4-1.1c0.5-0.6,0.8-0.9,1.1-0.9
			c0.3,0,0.5,0.1,0.5,0.6c0,0.4-0.3,1.6-0.6,5.2c-0.1,1.4-0.3,4.3-0.3,4.8c0,0.6,0,1.4-0.6,1.4c-0.5,0-0.6-0.3-0.6-0.6
			c-0.1-0.7-0.1-1.6-0.3-2.6c-0.4-1.4-1.4-2.5-4-2.8c-1.4-0.1-8.4-0.2-10.2-0.2c-0.4,0-0.4,0.3-0.4,0.7v5.7c0,2.4-0.1,9,0,11.1
			c0.1,4.9,1.3,6,8.6,6c1.9,0,4.9,0,6.7-0.9c1.9-0.9,2.7-2.4,3.2-5.3c0.1-0.8,0.3-1.1,0.8-1.1c0.6,0,0.6,0.6,0.6,1.3
			c0,1.6-0.6,6.5-0.9,7.9c-0.5,1.9-1.1,1.9-3.9,1.9c-5.4,0-9.3-0.1-12.4-0.2c-3.1-0.1-5.3-0.2-7.4-0.2c-0.8,0-2.4,0-4.1,0.1
			c-1.6,0-3.5,0.1-4.9,0.1c-0.9,0-1.4-0.2-1.4-0.7c0-0.4,0.3-0.6,1.1-0.6c1.1,0,1.9-0.1,2.6-0.3c1.4-0.3,1.8-1.9,2.1-3.9
			c0.4-3,0.4-8.7,0.4-15.2V33.3z"/>
	</g>
</g>
</svg>
