<?xml version="1.0" encoding="utf-8"?>
<!-- Generator: Adobe Illustrator 22.1.0, SVG Export Plug-In . SVG Version: 6.00 Build 0)  -->
<svg version="1.1" id="Layer_1" xmlns="http://www.w3.org/2000/svg" xmlns:xlink="http://www.w3.org/1999/xlink" x="0px" y="0px"
	 viewBox="0 0 592.3 587" style="enable-background:new 0 0 592.3 587;" xml:space="preserve">
<style type="text/css">
	.st0{fill:#D43B43;}
</style>
<g>
	<g>
		<path class="st0" d="M273.2,0.9c45.5-3.6,91.8,3.4,134.1,20.5c55.4,22.3,103.6,61.7,136.6,111.5c19.4,29.2,33.6,62,41.4,96.3
			c9.6,42.2,9.6,86.6,0,128.8c-13.3,59.1-45.8,113.5-91,153.8c-26.3,23.5-56.9,42.3-89.8,55.1c-73,28.7-157.3,26.6-228.8-5.5
			c-56.2-24.9-104.3-67.7-135.4-120.7C16.9,401.4,3.2,356.6,0.5,311.1c-2.6-41.7,4-83.9,19.3-122.8C41.2,133.5,79.5,85.7,128,52.4
			C170.7,22.9,221.4,4.9,273.2,0.9z M521,189.4c-1.3,2.4-3,4.7-5.7,5.5c-8.4,2.6-17.2,1.1-25.8,1.2c-7.3,0.1-14.7-0.4-21.9,1.1
			c-9.6,1.8-18.6,6.6-25.1,13.8c-11.7,12.7-16.8,30.1-18.5,47c-1.7,19-2,38.5,2.8,57.1c3.1,12.6,10.4,24.3,21.1,31.8
			c10.9,7.6,24.9,9.9,37.8,8c13-1.9,24.8-9.9,32.1-20.7c10.7-15.6,14-35.7,10-54c-3-14-11.1-27.1-23.6-34.5
			c-11.7-6.9-26.6-8.9-39.5-4.1c-8.4,3.1-15.2,9.7-18.7,17.9c-3.8,8.6-4.1,18.3-3,27.6c2.4,0,4.7,0,7.1,0
			c0.2-10.3,0.6-22.2,8.3-30.1c7.5-8.3,21.2-8.8,30.1-2.6c7.3,5.1,11.4,13.5,13.9,21.9c4.5,15.6,4.7,32.6-0.3,48.1
			c-2.3,7.2-6.7,14.2-13.7,17.6c-6.8,3.5-15.2,2-21.5-1.9c-10.3-5.8-16.3-16.5-21-26.9c-9.1-21.1-13.1-45.2-7-67.7
			c3-11,9.7-21.8,20.5-26.5c9.5-4.4,20.2-2.6,30.3-3c9.2-0.1,18.8-1.9,26.6-7.1c6.3-4.4,9-12,9.7-19.4
			C524.2,189.4,522.6,189.4,521,189.4z M61.2,240.7c0,2,0,4.1,0,6.1c2,0.2,4.1-0.1,6.1,0.6c2.9,1.3,4.5,4.5,4.4,7.6
			c0.1,28,0,56.1,0.1,84.1c0,2.7,0,5.9-2.2,7.9c-2.1,2.4-5.5,1.9-8.4,2.1c0,1.8,0,3.7,0,5.5c14,0,27.9,0,41.9,0c0-1.9,0-3.7,0-5.5
			c-2.8-0.2-6.3,0.4-8.4-2c-2.9-2.8-2-7.3-2.1-10.9c-0.1-28.3,0.2-56.6-0.1-84.8c16,0,32,0,48,0c0,29.6,0,59.3,0,88.9
			c0.1,2.6-0.4,5.5-2.5,7.2c-2.1,2.1-5.3,1.4-8,1.7c0,1.8,0,3.7,0,5.5c14,0,27.9,0,41.9,0c0-1.9,0-3.7,0-5.5
			c-2.8-0.2-6.1,0.3-8.3-1.9c-2-1.8-2.4-4.5-2.3-7.1c0-28,0-56,0-83.9c-0.1-2.8,0.5-5.8,2.8-7.6c2.1-2,5.2-1.4,7.8-1.7
			c0-2.1,0-4.1,0-6.1C134.9,240.7,98,240.7,61.2,240.7z M173,240.7c0,1.9,0,3.9,0,5.9c6.8,1.1,10.4,7.5,13.2,13.1
			c11.7,24.1,23.3,48.1,35,72.2c-1.7,3.6-3.2,7.3-5,10.8c-1,2.1-3.1,4.1-5.6,3.7c-4.2-0.9-7.4-4-11.1-6c-0.4,0.1-1.1,0.4-1.5,0.5
			c0.2,4.6,1.3,9.1,2.1,13.6c5.7,0,11.6,1.1,17-0.8c4.5-1.6,7.7-5.4,9.6-9.6c13-28.4,25.9-56.7,38.9-85.1c1.9-4.2,4.6-8.2,8.6-10.5
			c2.7-1.6,6.4-1.8,9,0.1c2.3,1.7,2.5,4.8,2.5,7.5c0,28,0,56,0,84c0,2.5-0.3,5.2-2.2,7c-2.1,2.4-5.5,1.9-8.4,2.1c0,1.8,0,3.7,0,5.5
			c10.5,0,20.9,0,31.4,0c0-1.9,0-3.7,0-5.6c-1.9-0.1-3.9,0-5.7-0.3c-3.1-0.9-5-4.4-4.8-7.5c0-25.2,0-50.4,0-75.6
			c13,30,26,59.9,38.9,89.9c1.3,0,2.6,0,3.9,0.1c13.4-29.4,26.5-58.9,40-88.2c0.1,23.9,0,47.9,0.1,71.8c0,2.8-0.1,5.9-2.3,7.9
			c-2.1,2.3-5.4,1.9-8.3,2.1c0,1.8,0,3.7,0,5.5c13.9,0,27.7,0,41.6,0c0-1.9,0-3.7,0-5.5c-2.6-0.2-5.5,0.3-7.6-1.6
			c-2-1.5-2.9-4-2.8-6.4c-0.1-28.3,0-56.7,0-85c-0.1-2.7,0.5-5.7,2.8-7.5c2.1-2,5.1-1.5,7.8-1.7c0-2.1,0-4.1,0-6.1
			c-10.2,0-20.4,0-30.6,0c-12.3,26.9-24.4,53.9-36.6,80.8c-12.2-26.9-24.4-53.9-36.7-80.8c-17.9,0-35.8,0-53.8,0c0,2,0,4.1,0,6.1
			c1.4,0.7,3.4,0.7,4.3,2.3c1.3,2.3,0.1,5-0.8,7.2c-8,17.4-16,34.8-23.9,52.1c-8.4-17.8-16.7-35.6-25.1-53.3c-0.8-1.9-1.9-3.9-1.5-6
			c0-3.2,3.9-1.7,6-2.3c0-2,0-4.1,0-6.1C198.4,240.7,185.7,240.7,173,240.7z"/>
	</g>
</g>
</svg>
