<?xml version="1.0" encoding="utf-8"?>
<!-- Generator: Adobe Illustrator 22.1.0, SVG Export Plug-In . SVG Version: 6.00 Build 0)  -->
<svg version="1.1" id="Layer_1" xmlns="http://www.w3.org/2000/svg" xmlns:xlink="http://www.w3.org/1999/xlink" x="0px" y="0px"
	 viewBox="0 0 584 449.6" style="enable-background:new 0 0 584 449.6;" xml:space="preserve">
<style type="text/css">
	.st0{fill:#205DA6;}
</style>
<g>
	<path class="st0" d="M211.5,5.4c21.6-6.9,45.1-6.9,67-1.3c33,8.9,63.1,29.2,82.7,57.4c-17.9-20.2-42.1-35.4-68.8-40.2
		c-22.2-4.1-45.5-0.4-65.6,9.4c-26.1,12.7-48.1,34.4-59.9,61.1c-9.3,21-13.4,44.6-10.4,67.5c2.3,17.1,8.6,33.5,18,48
		c0.8,1.2,1.7,2.4,3,3.1c17.3,10.3,37.7,15.2,57.8,14.5c13.4,11.1,29.1,19.3,45.2,25.8c-13.4,2.5-27.4,3.4-40.9,0.9
		c-24.9-4.5-47.4-17.8-66.5-34c-21.5-18.7-38.3-44-43-72.4c-4.6-25.7-1.8-52.9,9.7-76.4c8.6-17.6,21.3-33.3,37.1-44.9
		C187.5,16.1,199.2,9.8,211.5,5.4z"/>
	<path class="st0" d="M186.2,82.1c12.3-17.4,28.9-31.6,48.2-40.7c-5.1,7.3-8.3,15.7-10.9,24.2c-6.5,21.9-6.6,46.2,2.1,67.5
		c5,12.7,13.3,23.7,22,34c9.7,11.3,20.8,21.8,34,29.1c15.6,8.9,33,14.4,50.7,16.9c43.7,5.4,87.8,4.9,131.8,5.5
		c6.4,12.4,13,24.7,19.4,37.1c-49.7,0.1-99.6,0-149-5.3c-31-3.3-61.7-13.7-87-32.2c-23.4-17.3-43.7-39.8-55.2-66.8
		C182.4,129.9,179.2,104.9,186.2,82.1z"/>
	<path class="st0" d="M334.4,53c10.7,6.7,19.3,16.3,26.7,26.5c11.5,16.2,20.1,35.5,19.6,55.7c-0.4,24.1-9.7,47.5-23.1,67.3
		c-15.7-1.1-31.4-2.7-46.5-7.6c21.6-20.2,35.5-48.3,38.3-77.7C352.1,94.8,345.7,72.3,334.4,53z"/>
	<path class="st0" d="M76.5,224c28-0.4,56-0.1,84-0.2c12.8,11.7,27.2,21.6,42.8,29.3c-47.7,0.1-95.3,0-143,0
		C65.7,243.4,71.4,233.8,76.5,224z"/>
	<g>
		<path class="st0" d="M359.3,320.2c16.1-7.5,35-8.4,51.8-2.5c13.7,4.8,25.8,14,34,26c9.1,13.2,13.2,29.7,11.3,45.6
			c-1.3,12-6,23.5-13.2,33.1c3.5,3.7,7.2,7.2,10.7,10.8c-5.3,5.2-10.5,10.4-15.7,15.7c-3.8-3.7-7.4-7.5-11.3-11.2
			c-14.5,10-33,13.9-50.4,10.9c-25.3-4-47.3-23.6-54.2-48.3c-4.8-16.5-2.9-34.8,5.2-50C334.4,337.1,345.8,326.4,359.3,320.2z
			 M375.3,337.3c-12.6,3.9-22.9,13.9-27.8,26c-4.7,11.2-4.9,24.1-0.6,35.4c5.1,13.8,17,25,31.4,28.3c11,2.7,22.9,0.6,32.6-5.2
			c-4.9-5.2-10.1-10.1-15.1-15.2c5.2-5.2,10.5-10.4,15.7-15.7c5,4.8,9.7,9.9,14.8,14.6c5.6-9.6,7.5-21.3,5.6-32.2
			c-2.3-13.5-10.8-26-22.8-32.7C398.9,334.9,386.4,333.7,375.3,337.3z"/>
	</g>
	<path class="st0" d="M0,317.9c8-0.1,16,0.2,23.9-0.1c0.4,24.1,0,48.3,0.2,72.4c0.2,10.2,3.6,20.9,11.3,27.9
		c11.6,10.9,31.8,10.5,42.9-0.9c7.5-7.6,10.3-18.6,10.3-29c0.1-23.5,0-46.9,0.1-70.4c8,0,16,0,24,0c0,25.8,0,51.6,0,77.4
		c-0.2,14.6-6.5,29.1-17.3,38.9c-20.4,18.5-54.3,19.1-75.7,1.9C7.2,426.1,0.1,410.2,0,394.3C0,368.8,0,343.4,0,317.9z"/>
	<path class="st0" d="M139.4,317.9c4.3,0,8.6,0,12.9,0c23.3,26.4,46.3,53.1,69.7,79.5c0-26.5,0-53,0-79.5c7.9,0,15.9,0,23.8,0
		c0,42.6,0,85.2,0,127.9c-4.4,0-8.9,0-13.3,0c-23.1-26.5-46.2-52.9-69.3-79.4c0,26.4,0,52.8,0,79.2c-7.9,0-15.9,0-23.8,0
		C139.4,403,139.3,360.4,139.4,317.9z"/>
	<path class="st0" d="M274.1,317.9c8.2,0,16.5,0,24.7,0c0,42.6,0,85.1,0,127.7c-8.2,0-16.5,0-24.7,0
		C274.1,403,274.1,360.5,274.1,317.9z"/>
	<g>
		<path class="st0" d="M457.4,445.5c18.6-42.5,37.1-85.1,55.7-127.6c5.5,0,11,0,16.5,0c18.2,42.5,36.3,85.1,54.4,127.6
			c-8.8,0-17.6,0-26.4,0c-3.2-8-6.5-16-9.7-24c-18.3,0-36.6-0.1-54.9,0.1c-3.1,8-6.7,15.8-9.8,23.8
			C474.6,445.7,466,445.4,457.4,445.5z M501.9,400.4c12.5,0,25,0,37.5,0c-6.1-15.2-12.3-30.3-18.3-45.4
			C514.4,370,508.4,385.3,501.9,400.4z"/>
	</g>
</g>
</svg>
