<svg xmlns="http://www.w3.org/2000/svg" x="0px" y="0px" viewBox="0 0 90.8 54.4" style="enable-background:new 0 0 90.8 54.4;" xml:space="preserve">
<style type="text/css">
	.st0{fill-rule:evenodd;clip-rule:evenodd;fill:#FFFFFF;}
</style>
<g>
	<path class="st0" d="M22.7,26.8c-0.1,0-0.2,0-0.3-0.1c-0.1,0-0.3,0-0.4-0.1v8.9c0,0,0,0,0.1,0s0,0,0.1,0s0,0,0.1,0c0,0,0,0,0.1,0
		c0,0,0,0,0,0c0,0,0,0,0.1,0c0.1,0,0.2,0,0.3-0.1c0.1,0,0.2-0.1,0.2-0.1c0,0,0.1-0.1,0.1-0.1c0,0,0.1-0.1,0.1-0.2v-8.2
		c0,0,0-0.1-0.1-0.1C22.9,26.9,22.8,26.8,22.7,26.8z"/>
	<path class="st0" d="M22.7,17c-0.1,0-0.2-0.1-0.3-0.1c-0.1,0-0.2,0-0.4-0.1v6.9c0,0,0,0,0,0s0,0,0,0c0,0,0,0,0,0c0,0,0,0,0.1,0
		c0.1,0,0.2,0,0.3,0c0.1,0,0.2,0,0.3-0.1c0.1,0,0.2-0.1,0.2-0.1c0,0,0.1-0.1,0.1-0.2v-6c0-0.1,0-0.2-0.1-0.2
		C22.9,17.1,22.8,17.1,22.7,17z"/>
	<path class="st0" d="M90.7,32.1c-0.7-5.5-1.6-11-2.5-16.5c-0.6-4.2-3.9-6.8-8.9-7.4C56.2,5.2,32.9,2.6,9.7,0.1
		C4.2-0.5-0.9,2.8,0.1,9c2.1,13,4.3,24.7,7.1,37.5c1.5,6.6,5.3,9.1,14.5,7.4C42.8,50.2,64,47.3,85,43.3
		C89.4,42.5,91.4,38.1,90.7,32.1z M17.7,16.9h-1.5v21.2h-0.3h-3.1V16.9h-1.5v-2.5h0.3h6V16.9z M26.4,21.6c0,0.4,0,0.7-0.1,1.1
		c0,0.3-0.1,0.7-0.2,1c-0.1,0.3-0.2,0.6-0.4,0.9s-0.4,0.5-0.7,0.7c0,0,0.1,0,0.1,0.1c0,0,0.1,0.1,0.1,0.1c0,0,0,0,0.1,0.1
		c0,0,0,0,0.1,0c0,0,0,0,0,0.1c0,0,0,0,0.1,0.1c0,0,0.1,0.1,0.1,0.1c0,0,0.1,0.1,0.1,0.1c0,0,0.1,0.1,0.1,0.1c0,0,0.1,0.1,0.1,0.1
		c0.1,0.1,0.1,0.2,0.2,0.3c0.1,0.1,0.1,0.2,0.1,0.3c0,0.1,0.1,0.1,0.1,0.2c0,0.1,0,0.1,0.1,0.2c0,0.1,0,0.1,0.1,0.2
		c0,0.1,0,0.1,0,0.2v8.1c0,0.4-0.1,0.7-0.2,1c-0.1,0.3-0.3,0.6-0.5,0.8c-0.2,0.3-0.5,0.4-0.7,0.5c-0.3,0.1-0.6,0.2-0.9,0.2h-0.3
		h-5.2V14.3h0.3H24c0.3,0,0.7,0.1,1,0.2c0.3,0.1,0.6,0.3,0.8,0.5c0.3,0.2,0.4,0.5,0.5,0.8c0.1,0.3,0.2,0.6,0.2,1V21.6z M35.7,16.5
		C35.7,16.5,35.7,16.5,35.7,16.5c0,0.1,0,0.1,0,0.1s0,0,0,0.1v5.9h-0.3h-3.1v-5.2c0-0.1,0-0.1-0.1-0.2c0-0.1-0.1-0.1-0.1-0.2
		c0,0-0.1-0.1-0.2-0.1c-0.1,0-0.1,0-0.2-0.1c-0.1,0-0.1,0-0.2,0.1c-0.1,0-0.1,0.1-0.2,0.1c0,0-0.1,0.1-0.1,0.2c0,0.1,0,0.1,0,0.2
		v17.7c0,0.1,0,0.2,0,0.3c0,0.1,0.1,0.1,0.1,0.2c0,0,0.1,0.1,0.2,0.1s0.1,0.1,0.2,0.1c0,0,0.1,0,0.1,0s0.1,0,0.1-0.1
		c0,0,0.1,0,0.1-0.1c0,0,0.1-0.1,0.1-0.1c0,0,0.1-0.1,0.1-0.2c0-0.1,0.1-0.1,0.1-0.2v-6.7l-0.7-0.5v-2.2h0.3h3.8v12.4h-0.3h-1.2
		l-0.5-0.6c-0.1,0.1-0.2,0.2-0.3,0.3c-0.1,0.1-0.3,0.1-0.4,0.2c-0.1,0.1-0.3,0.1-0.4,0.1c-0.1,0-0.3,0-0.4,0.1c0,0,0,0-0.1,0
		c0,0,0,0-0.1,0s0,0-0.1,0s0,0-0.1,0l-0.3,0h-1.5c0,0,0,0-0.1,0s0,0,0,0c0,0,0,0-0.1,0s0,0-0.1,0s0,0-0.1,0c0,0,0,0,0,0
		c0,0,0,0-0.1,0s0,0-0.1,0c-0.2,0-0.5,0-0.7-0.1c-0.2-0.1-0.4-0.2-0.6-0.4c-0.2-0.2-0.4-0.4-0.5-0.6c-0.1-0.2-0.2-0.4-0.2-0.6V16.6
		c0,0,0,0,0,0s0,0,0-0.1c0,0,0-0.1,0-0.1c0,0,0-0.1,0-0.1c0-0.3,0.1-0.5,0.3-0.7c0.1-0.2,0.3-0.5,0.6-0.7c0.2-0.2,0.5-0.4,0.7-0.5
		c0.2-0.1,0.5-0.2,0.8-0.2l0.3,0h2.7c0.3,0,0.5,0.1,0.8,0.2c0.3,0.1,0.5,0.3,0.7,0.5c0.2,0.2,0.4,0.5,0.6,0.7
		c0.1,0.2,0.2,0.5,0.3,0.7c0,0,0,0,0,0.1S35.7,16.4,35.7,16.5C35.7,16.5,35.7,16.5,35.7,16.5z M52.1,38.1h-0.3h-3.2l-0.7-11.2
		l-0.7,11.2h-0.3h-3.2l-2.2-23.7h0.3h2.9l0.7,11.8l0.9-11.8h0.3h2.8l0.9,12l0.7-12h0.3h2.9L52.1,38.1z M58.4,38.1h-0.3H55V14.4h0.3
		h3.1V38.1z M65.8,26.6h-0.3h-5.6v-2.6h0.3h4.1h1.5V26.6z M72.6,16.9h-1.9v6.8h1.9v2.5h-1.9v11.9h-0.3h-3.1V14.4h0.3h5V16.9z
		 M77.5,38.1h-0.3h-3.1V14.4h0.3h2h1.1V38.1z"/>
</g>
</svg>
