<svg xmlns="http://www.w3.org/2000/svg" x="0px" y="0px" viewBox="0 0 90.8 54.4" >
<style type="text/css">
	.logo-tbg{fill-rule:evenodd;clip-rule:evenodd;fill:#AFB4CA;}
	.logo-wifi{fill-rule:evenodd;clip-rule:evenodd;fill:#8B93B0;}
</style>
<path class="logo-tbg" d="M0.1,9c-1-6.2,4-9.5,9.6-8.9c23.2,2.6,46.5,5.1,69.6,8.2c5,0.7,8.2,3.2,8.9,7.4c0.8,5.5,1.8,11,2.5,16.5
	c0.7,5.9-1.2,10.3-5.7,11.2c-21,4-42.2,6.9-63.3,10.6c-9.2,1.6-13.1-0.8-14.5-7.4C4.4,33.6,2.3,21.9,0.1,9L0.1,9z M76.4,14.4
	L76.4,14.4h-0.3v23.7h3.1h0.3V14.4H76.4L76.4,14.4z M72.9,38.1L72.9,38.1h0.3V26.2h1.9v-2.5h-1.9v-6.8h1.9v-2.5h-5h-0.3v23.7H72.9
	L72.9,38.1z M64.3,24.1L64.3,24.1h-4.1h-0.3v2.6h8.2h0.3v-2.6H64.3L64.3,24.1z M55.3,14.4L55.3,14.4H55v23.7h3.1h0.3V14.4H55.3
	L55.3,14.4z M46.8,38.1L46.8,38.1h0.3l0.7-11.2l0.7,11.2h3.2h0.3l2.1-23.7h-2.9H51l-0.7,12l-0.9-12h-2.8h-0.3l-0.9,11.8l-0.7-11.8
	h-2.9h-0.3l2.2,23.7H46.8z"/>
<path class="logo-wifi" d="M33.5,37.6c-0.1,0.1-0.2,0.2-0.3,0.3C33,38,32.9,38,32.8,38.1c-0.1,0.1-0.3,0.1-0.4,0.1c-0.1,0-0.3,0-0.4,0.1
	c0,0,0,0-0.1,0c0,0,0,0-0.1,0s0,0-0.1,0c0,0,0,0-0.1,0l-0.3,0h-1.5c0,0,0,0-0.1,0c0,0,0,0,0,0c0,0,0,0-0.1,0c0,0,0,0-0.1,0
	c0,0,0,0-0.1,0c0,0,0,0,0,0c0,0,0,0-0.1,0c0,0,0,0-0.1,0c-0.2,0-0.5,0-0.7-0.1c-0.2-0.1-0.4-0.2-0.6-0.4c-0.2-0.2-0.4-0.4-0.5-0.6
	c-0.1-0.2-0.2-0.4-0.2-0.6V16.7c0,0,0,0,0,0c0,0,0,0,0-0.1c0,0,0-0.1,0-0.1s0-0.1,0-0.1c0-0.3,0.1-0.5,0.3-0.7
	c0.1-0.2,0.3-0.5,0.6-0.7c0.2-0.2,0.5-0.4,0.7-0.5c0.2-0.1,0.5-0.2,0.8-0.2l0.3,0h2.7c0.3,0,0.5,0.1,0.8,0.2
	c0.3,0.1,0.5,0.3,0.7,0.5c0.2,0.2,0.4,0.5,0.6,0.7c0.1,0.2,0.2,0.5,0.3,0.7c0,0,0,0,0,0.1s0,0,0,0.1c0,0,0,0,0,0.1c0,0,0,0,0,0.1
	c0,0,0,0,0,0.1c0,0,0,0,0,0.1v5.9h-0.3H32v-5.2c0-0.1,0-0.1-0.1-0.2c0-0.1-0.1-0.1-0.1-0.2c0,0-0.1-0.1-0.2-0.1
	c-0.1,0-0.1,0-0.2-0.1c-0.1,0-0.1,0-0.2,0.1c-0.1,0-0.1,0.1-0.2,0.1c0,0-0.1,0.1-0.1,0.2c0,0.1,0,0.1,0,0.2v17.7c0,0.1,0,0.2,0,0.3
	c0,0.1,0.1,0.1,0.1,0.2c0,0,0.1,0.1,0.2,0.1c0.1,0,0.1,0.1,0.2,0.1c0,0,0.1,0,0.1,0c0,0,0.1,0,0.1-0.1c0,0,0.1,0,0.1-0.1
	c0,0,0.1-0.1,0.1-0.1c0,0,0.1-0.1,0.1-0.2c0-0.1,0.1-0.1,0.1-0.2v-6.7L31.3,28v-2.2h0.3h3.8v12.4h-0.3H34L33.5,37.6L33.5,37.6
	L33.5,37.6z M22.8,17.5c0-0.1,0-0.2-0.1-0.2c0-0.1-0.1-0.1-0.2-0.1c-0.1,0-0.2-0.1-0.3-0.1c-0.1,0-0.2,0-0.4-0.1v6.9c0,0,0,0,0,0
	s0,0,0,0l0,0l0,0c0,0,0,0,0,0c0,0,0,0,0.1,0c0.1,0,0.2,0,0.3,0c0.1,0,0.2,0,0.3-0.1c0.1,0,0.2-0.1,0.2-0.1c0,0,0.1-0.1,0.1-0.2V17.5
	L22.8,17.5L22.8,17.5z M21.8,35.6C21.8,35.7,21.8,35.7,21.8,35.6c0.1,0,0.1,0,0.1,0c0,0,0,0,0.1,0c0,0,0,0,0.1,0c0,0,0,0,0,0
	c0,0,0,0,0.1,0c0.1,0,0.2,0,0.3-0.1c0.1,0,0.2-0.1,0.2-0.1c0,0,0.1-0.1,0.1-0.1c0,0,0.1-0.1,0.1-0.2v-8.2c0,0,0-0.1-0.1-0.1
	c0,0-0.1-0.1-0.2-0.1c-0.1,0-0.2,0-0.3-0.1c-0.1,0-0.3,0-0.4-0.1V35.6L21.8,35.6L21.8,35.6z M18.3,38.2V14.4h0.3h5.1
	c0.3,0,0.7,0.1,1,0.2c0.3,0.1,0.6,0.3,0.8,0.5c0.3,0.2,0.4,0.5,0.5,0.8c0.1,0.3,0.2,0.6,0.2,1v4.9c0,0.4,0,0.7-0.1,1.1
	c0,0.3-0.1,0.7-0.2,1c-0.1,0.3-0.2,0.6-0.4,0.9s-0.4,0.5-0.7,0.7c0,0,0.1,0,0.1,0.1c0,0,0.1,0.1,0.1,0.1c0,0,0,0,0.1,0.1
	c0,0,0,0,0.1,0c0,0,0,0,0,0.1c0,0,0,0,0.1,0.1c0,0,0.1,0.1,0.1,0.1c0,0,0.1,0.1,0.1,0.1c0,0,0.1,0.1,0.1,0.1c0,0,0.1,0.1,0.1,0.1
	c0.1,0.1,0.1,0.2,0.2,0.3c0.1,0.1,0.1,0.2,0.1,0.3c0,0.1,0.1,0.1,0.1,0.2c0,0.1,0,0.1,0.1,0.2c0,0.1,0,0.1,0.1,0.2
	c0,0.1,0,0.1,0,0.2v8.1c0,0.4-0.1,0.7-0.2,1c-0.1,0.3-0.3,0.6-0.5,0.8c-0.2,0.3-0.5,0.4-0.7,0.5c-0.3,0.1-0.6,0.2-0.9,0.2h-0.3H18.3
	L18.3,38.2L18.3,38.2z M12.6,17h-1.5v-2.5h0.3h6V17h-1.5v21.2h-0.3h-3.1V17L12.6,17z"/>
</svg>
